<svg id="svg" version="1.1" xmlns="http://www.w3.org/2000/svg" xmlns:xlink="http://www.w3.org/1999/xlink" width="400" height="400" viewBox="0, 0, 400,400"><g id="svgg"><path id="path0" d="M188.400 17.028 C 183.191 17.356,176.017 18.241,167.600 19.593 C 155.503 21.537,136.164 27.544,124.800 32.887 C 108.683 40.464,99.900 45.893,84.819 57.600 C 72.611 67.077,57.660 83.380,48.116 97.621 C 41.590 107.361,36.599 116.475,31.474 128.012 C 27.269 137.478,22.161 154.110,20.237 164.600 C 17.434 179.879,17.330 181.817,19.300 182.098 C 20.015 182.200,22.040 182.579,23.800 182.940 C 31.067 184.433,33.486 184.839,44.300 186.386 C 49.366 187.111,52.997 187.574,57.000 188.006 C 59.200 188.243,62.440 188.600,64.200 188.799 C 65.960 188.998,68.840 189.260,70.600 189.381 C 72.360 189.502,77.220 189.860,81.400 190.176 C 90.833 190.890,111.306 191.725,114.800 191.539 L 117.400 191.400 117.676 190.000 C 117.827 189.230,118.150 187.340,118.393 185.800 C 118.991 182.013,119.902 178.475,121.688 173.000 C 130.063 147.337,153.694 125.443,179.700 119.252 C 188.061 117.262,190.455 117.000,200.200 117.005 C 209.978 117.011,211.496 117.182,220.400 119.280 C 233.432 122.352,246.578 129.690,257.154 139.795 C 270.838 152.870,279.804 170.594,282.209 189.323 C 282.540 191.897,281.889 191.811,296.772 191.251 C 318.453 190.435,337.904 188.874,352.200 186.803 C 353.740 186.580,356.350 186.224,358.000 186.012 C 362.476 185.437,376.388 183.001,380.400 182.090 C 382.351 181.646,382.422 179.599,380.797 170.600 C 379.636 164.172,378.739 159.605,378.363 158.200 C 378.127 157.320,377.784 155.970,377.600 155.200 C 375.907 148.102,371.649 135.281,369.032 129.400 C 368.542 128.300,367.894 126.770,367.591 126.000 C 367.131 124.833,361.190 112.995,359.360 109.600 C 343.686 80.524,314.223 52.483,282.390 36.345 C 276.839 33.531,275.412 32.862,271.800 31.380 C 270.920 31.019,269.660 30.487,269.000 30.199 C 263.045 27.592,252.285 24.077,244.600 22.227 C 235.252 19.977,231.078 19.175,224.600 18.385 C 222.620 18.143,219.920 17.769,218.600 17.553 C 216.237 17.167,192.692 16.757,188.400 17.028 " stroke="none" fill="#e7504d" fill-rule="evenodd"></path><path id="path1" d="M178.300 0.275 C 176.375 0.361,174.800 0.604,174.800 0.816 C 174.800 1.027,173.551 1.200,172.024 1.200 C 170.497 1.200,169.136 1.380,169.000 1.600 C 168.864 1.820,167.773 2.000,166.576 2.000 C 165.379 2.000,164.400 2.180,164.400 2.400 C 164.400 2.620,163.410 2.800,162.200 2.800 C 160.990 2.800,160.000 2.980,160.000 3.200 C 160.000 3.420,159.280 3.600,158.400 3.600 C 157.520 3.600,156.800 3.780,156.800 4.000 C 156.800 4.220,155.900 4.400,154.800 4.400 C 153.700 4.400,152.800 4.580,152.800 4.800 C 152.800 5.020,152.080 5.200,151.200 5.200 C 150.320 5.200,149.600 5.380,149.600 5.600 C 149.600 5.820,148.981 6.000,148.224 6.000 C 147.467 6.000,146.736 6.180,146.600 6.400 C 146.464 6.620,145.823 6.800,145.176 6.800 C 144.529 6.800,144.000 6.980,144.000 7.200 C 144.000 7.420,143.370 7.600,142.600 7.600 C 141.830 7.600,141.200 7.780,141.200 8.000 C 141.200 8.220,140.671 8.400,140.024 8.400 C 139.377 8.400,138.734 8.583,138.596 8.807 C 138.458 9.030,138.214 9.133,138.055 9.034 C 137.738 8.838,132.575 10.492,132.138 10.929 C 131.989 11.078,131.447 11.200,130.933 11.200 C 130.420 11.200,130.000 11.380,130.000 11.600 C 130.000 11.820,129.638 12.000,129.195 12.000 C 128.752 12.000,128.032 12.180,127.595 12.400 C 127.158 12.620,126.442 12.980,126.005 13.200 C 125.568 13.420,124.938 13.600,124.605 13.600 C 124.272 13.600,124.000 13.747,124.000 13.928 C 124.000 14.108,123.100 14.500,122.000 14.800 C 120.900 15.100,120.000 15.492,120.000 15.672 C 120.000 15.853,119.640 16.000,119.200 16.000 C 118.760 16.000,118.400 16.180,118.400 16.400 C 118.400 16.620,118.040 16.800,117.600 16.800 C 117.160 16.800,116.800 16.980,116.800 17.200 C 116.800 17.420,116.528 17.600,116.195 17.600 C 115.862 17.600,115.277 17.759,114.895 17.953 C 114.513 18.148,113.660 18.552,113.000 18.853 C 112.340 19.153,111.710 19.489,111.600 19.599 C 111.400 19.800,108.595 21.329,106.903 22.160 C 106.410 22.402,106.005 22.735,106.003 22.900 C 106.001 23.065,105.640 23.200,105.200 23.200 C 104.760 23.200,104.400 23.380,104.400 23.600 C 104.400 23.820,104.040 24.000,103.600 24.000 C 103.160 24.000,102.800 24.157,102.800 24.350 C 102.800 24.543,102.282 24.804,101.648 24.930 C 101.015 25.057,100.226 25.431,99.896 25.761 C 99.566 26.092,99.184 26.250,99.048 26.114 C 98.911 25.978,98.800 26.057,98.800 26.290 C 98.800 26.523,98.104 26.992,97.253 27.332 C 96.402 27.673,95.457 28.187,95.153 28.476 C 94.849 28.764,94.108 29.254,93.507 29.564 C 92.905 29.874,92.058 30.459,91.623 30.864 C 91.189 31.269,90.596 31.600,90.305 31.600 C 90.014 31.600,89.517 31.960,89.200 32.400 C 88.883 32.840,88.391 33.200,88.108 33.200 C 87.825 33.200,87.028 33.740,86.337 34.400 C 85.646 35.060,84.878 35.600,84.629 35.600 C 84.380 35.600,83.917 35.960,83.600 36.400 C 83.283 36.840,82.743 37.200,82.400 37.200 C 82.057 37.200,81.517 37.560,81.200 38.000 C 80.883 38.440,80.393 38.800,80.112 38.800 C 79.830 38.800,79.600 38.980,79.600 39.200 C 79.600 39.420,79.396 39.600,79.147 39.600 C 78.898 39.600,78.403 39.917,78.047 40.304 C 77.691 40.692,76.680 41.538,75.800 42.184 C 74.920 42.830,73.909 43.683,73.553 44.079 C 73.197 44.476,72.718 44.800,72.488 44.800 C 72.258 44.800,70.973 45.880,69.632 47.200 C 68.292 48.520,67.026 49.600,66.820 49.600 C 66.419 49.600,59.071 56.876,57.900 58.432 C 57.515 58.944,57.200 59.240,57.200 59.091 C 57.200 58.941,55.490 60.534,53.400 62.631 C 51.310 64.728,49.600 66.612,49.600 66.819 C 49.600 67.026,48.520 68.292,47.200 69.632 C 45.880 70.973,44.800 72.242,44.800 72.452 C 44.800 72.662,44.422 73.231,43.959 73.717 C 43.497 74.203,42.644 75.230,42.064 76.000 C 41.484 76.770,40.692 77.691,40.304 78.047 C 39.917 78.403,39.600 78.898,39.600 79.147 C 39.600 79.396,39.420 79.600,39.200 79.600 C 38.980 79.600,38.800 79.830,38.800 80.112 C 38.800 80.393,38.440 80.883,38.000 81.200 C 37.560 81.517,37.200 82.057,37.200 82.400 C 37.200 82.743,36.840 83.283,36.400 83.600 C 35.960 83.917,35.600 84.380,35.600 84.629 C 35.600 84.878,35.060 85.646,34.400 86.337 C 33.740 87.028,33.200 87.825,33.200 88.108 C 33.200 88.391,32.840 88.883,32.400 89.200 C 31.960 89.517,31.600 90.031,31.600 90.341 C 31.600 90.652,31.284 91.197,30.897 91.553 C 30.511 91.909,29.926 92.740,29.597 93.400 C 29.269 94.060,28.685 94.949,28.300 95.375 C 27.915 95.802,27.600 96.387,27.600 96.675 C 27.600 96.964,27.409 97.200,27.176 97.200 C 26.943 97.200,26.855 97.365,26.980 97.568 C 27.105 97.770,26.959 98.184,26.656 98.487 C 25.896 99.247,24.800 101.428,24.800 102.180 C 24.800 102.521,24.620 102.800,24.400 102.800 C 24.180 102.800,24.000 103.160,24.000 103.600 C 24.000 104.040,23.820 104.400,23.600 104.400 C 23.380 104.400,23.200 104.760,23.200 105.200 C 23.200 105.640,23.020 106.000,22.800 106.000 C 22.580 106.000,22.400 106.236,22.400 106.525 C 22.400 106.813,22.040 107.436,21.600 107.908 C 21.160 108.380,20.800 109.044,20.800 109.383 C 20.800 109.722,20.620 110.000,20.400 110.000 C 20.180 110.000,20.000 110.360,20.000 110.800 C 20.000 111.240,19.864 111.600,19.698 111.600 C 19.531 111.600,19.160 112.185,18.871 112.900 C 18.583 113.615,18.179 114.513,17.974 114.895 C 17.768 115.277,17.600 115.862,17.600 116.195 C 17.600 116.528,17.420 116.800,17.200 116.800 C 16.980 116.800,16.800 117.160,16.800 117.600 C 16.800 118.040,16.620 118.400,16.400 118.400 C 16.180 118.400,16.000 118.760,16.000 119.200 C 16.000 119.640,15.853 120.000,15.672 120.000 C 15.492 120.000,15.100 120.900,14.800 122.000 C 14.500 123.100,14.108 124.000,13.928 124.000 C 13.747 124.000,13.600 124.272,13.600 124.605 C 13.600 124.938,13.420 125.568,13.200 126.005 C 12.980 126.442,12.620 127.158,12.400 127.595 C 12.180 128.032,12.000 128.752,12.000 129.195 C 12.000 129.638,11.859 130.000,11.687 130.000 C 11.515 130.000,11.129 130.855,10.829 131.900 C 10.529 132.945,10.108 134.025,9.893 134.300 C 9.678 134.575,9.600 134.800,9.721 134.800 C 9.841 134.800,9.593 135.786,9.170 136.990 C 8.746 138.195,8.400 139.635,8.400 140.190 C 8.400 140.746,8.220 141.200,8.000 141.200 C 7.780 141.200,7.600 141.830,7.600 142.600 C 7.600 143.370,7.420 144.000,7.200 144.000 C 6.980 144.000,6.800 144.529,6.800 145.176 C 6.800 145.823,6.620 146.464,6.400 146.600 C 6.180 146.736,6.000 147.467,6.000 148.224 C 6.000 148.981,5.820 149.600,5.600 149.600 C 5.380 149.600,5.200 150.320,5.200 151.200 C 5.200 152.080,5.020 152.800,4.800 152.800 C 4.580 152.800,4.400 153.599,4.400 154.576 C 4.400 155.553,4.220 156.464,4.000 156.600 C 3.780 156.736,3.600 157.557,3.600 158.424 C 3.600 159.291,3.420 160.000,3.200 160.000 C 2.980 160.000,2.800 160.889,2.800 161.976 C 2.800 163.063,2.620 164.064,2.400 164.200 C 2.180 164.336,2.000 165.416,2.000 166.600 C 2.000 167.784,1.820 168.864,1.600 169.000 C 1.380 169.136,1.200 170.482,1.200 171.990 C 1.200 173.829,1.035 174.788,0.700 174.900 C -0.032 175.144,-0.032 224.856,0.700 225.100 C 1.035 225.212,1.200 226.171,1.200 228.010 C 1.200 229.518,1.380 230.864,1.600 231.000 C 1.820 231.136,2.000 232.216,2.000 233.400 C 2.000 234.584,2.180 235.664,2.400 235.800 C 2.620 235.936,2.800 236.937,2.800 238.024 C 2.800 239.111,2.980 240.000,3.200 240.000 C 3.420 240.000,3.600 240.709,3.600 241.576 C 3.600 242.443,3.780 243.264,4.000 243.400 C 4.220 243.536,4.400 244.447,4.400 245.424 C 4.400 246.401,4.580 247.200,4.800 247.200 C 5.020 247.200,5.200 247.920,5.200 248.800 C 5.200 249.680,5.380 250.400,5.600 250.400 C 5.820 250.400,6.000 251.019,6.000 251.776 C 6.000 252.533,6.180 253.264,6.400 253.400 C 6.620 253.536,6.800 254.177,6.800 254.824 C 6.800 255.471,6.980 256.000,7.200 256.000 C 7.420 256.000,7.600 256.630,7.600 257.400 C 7.600 258.170,7.780 258.800,8.000 258.800 C 8.220 258.800,8.400 259.241,8.400 259.780 C 8.400 260.960,11.245 269.744,11.688 269.933 C 11.860 270.007,12.000 270.414,12.000 270.839 C 12.000 271.263,12.180 271.968,12.400 272.405 C 12.620 272.842,12.980 273.558,13.200 273.995 C 13.420 274.432,13.600 275.062,13.600 275.395 C 13.600 275.728,13.747 276.000,13.928 276.000 C 14.108 276.000,14.500 276.900,14.800 278.000 C 15.100 279.100,15.492 280.000,15.672 280.000 C 15.853 280.000,16.000 280.360,16.000 280.800 C 16.000 281.240,16.180 281.600,16.400 281.600 C 16.620 281.600,16.800 281.960,16.800 282.400 C 16.800 282.840,16.980 283.200,17.200 283.200 C 17.420 283.200,17.600 283.560,17.600 284.000 C 17.600 284.440,17.780 284.800,18.000 284.800 C 18.220 284.800,18.400 285.124,18.400 285.520 C 18.400 286.414,19.294 288.393,19.700 288.397 C 19.865 288.399,20.000 288.745,20.000 289.167 C 20.000 289.588,20.135 289.993,20.300 290.067 C 20.676 290.234,21.975 292.364,22.271 293.300 C 22.393 293.685,22.652 294.000,22.847 294.000 C 23.041 294.000,23.200 294.360,23.200 294.800 C 23.200 295.240,23.380 295.600,23.600 295.600 C 23.820 295.600,24.000 295.960,24.000 296.400 C 24.000 296.840,24.180 297.200,24.400 297.200 C 24.620 297.200,24.800 297.487,24.800 297.838 C 24.800 298.189,25.172 298.999,25.627 299.638 C 26.082 300.277,26.307 300.803,26.127 300.806 C 25.947 300.809,25.982 300.944,26.205 301.106 C 26.428 301.268,27.042 302.255,27.568 303.300 C 28.095 304.345,28.634 305.200,28.765 305.200 C 28.897 305.200,29.229 305.706,29.503 306.325 C 29.776 306.944,30.315 307.799,30.700 308.225 C 31.085 308.651,31.655 309.495,31.968 310.100 C 32.280 310.705,32.685 311.200,32.868 311.200 C 33.050 311.200,33.200 311.472,33.200 311.804 C 33.200 312.136,33.740 312.972,34.400 313.663 C 35.060 314.354,35.600 315.122,35.600 315.371 C 35.600 315.620,35.960 316.083,36.400 316.400 C 36.840 316.717,37.200 317.257,37.200 317.600 C 37.200 317.943,37.560 318.483,38.000 318.800 C 38.440 319.117,38.800 319.607,38.800 319.888 C 38.800 320.170,38.980 320.400,39.200 320.400 C 39.420 320.400,39.600 320.604,39.600 320.853 C 39.600 321.102,39.917 321.597,40.304 321.953 C 40.692 322.309,41.538 323.320,42.184 324.200 C 42.830 325.080,43.683 326.091,44.079 326.447 C 44.476 326.803,44.800 327.282,44.800 327.512 C 44.800 327.742,45.880 329.027,47.200 330.368 C 48.520 331.708,49.600 332.974,49.600 333.180 C 49.600 333.386,51.390 335.320,53.579 337.478 C 58.410 342.241,57.759 341.590,62.522 346.421 C 64.680 348.610,66.614 350.400,66.820 350.400 C 67.026 350.400,68.292 351.480,69.632 352.800 C 70.973 354.120,72.258 355.200,72.488 355.200 C 72.718 355.200,73.197 355.524,73.553 355.921 C 73.909 356.317,74.920 357.170,75.800 357.816 C 76.680 358.462,77.691 359.308,78.047 359.696 C 78.403 360.083,78.898 360.400,79.147 360.400 C 79.396 360.400,79.600 360.580,79.600 360.800 C 79.600 361.020,79.830 361.200,80.112 361.200 C 80.393 361.200,80.883 361.560,81.200 362.000 C 81.517 362.440,82.057 362.800,82.400 362.800 C 82.743 362.800,83.283 363.160,83.600 363.600 C 83.917 364.040,84.380 364.400,84.629 364.400 C 84.878 364.400,85.646 364.940,86.337 365.600 C 87.028 366.260,87.782 366.800,88.013 366.800 C 88.244 366.800,88.820 367.160,89.292 367.600 C 89.764 368.040,90.387 368.400,90.675 368.400 C 90.964 368.400,91.200 368.580,91.200 368.800 C 91.200 369.020,91.442 369.200,91.738 369.200 C 92.034 369.200,92.602 369.560,93.000 370.000 C 93.398 370.440,93.966 370.800,94.262 370.800 C 94.558 370.800,94.800 370.952,94.800 371.137 C 94.800 371.323,95.655 371.905,96.700 372.432 C 97.745 372.958,98.690 373.502,98.800 373.639 C 99.168 374.099,101.553 375.200,102.180 375.200 C 102.521 375.200,102.800 375.380,102.800 375.600 C 102.800 375.820,103.160 376.000,103.600 376.000 C 104.040 376.000,104.400 376.180,104.400 376.400 C 104.400 376.620,104.636 376.800,104.925 376.800 C 105.213 376.800,105.836 377.160,106.308 377.600 C 106.780 378.040,107.444 378.400,107.783 378.400 C 108.122 378.400,108.400 378.580,108.400 378.800 C 108.400 379.020,108.760 379.200,109.200 379.200 C 109.640 379.200,110.000 379.380,110.000 379.600 C 110.000 379.820,110.360 380.000,110.800 380.000 C 111.240 380.000,111.600 380.180,111.600 380.400 C 111.600 380.620,111.949 380.800,112.376 380.800 C 112.803 380.800,113.264 380.980,113.400 381.200 C 113.536 381.420,113.997 381.600,114.424 381.600 C 114.851 381.600,115.200 381.780,115.200 382.000 C 115.200 382.220,115.560 382.400,116.000 382.400 C 116.440 382.400,116.800 382.580,116.800 382.800 C 116.800 383.020,117.160 383.200,117.600 383.200 C 118.040 383.200,118.400 383.380,118.400 383.600 C 118.400 383.820,118.760 384.000,119.200 384.000 C 119.640 384.000,120.000 384.147,120.000 384.328 C 120.000 384.508,120.900 384.900,122.000 385.200 C 123.100 385.500,124.000 385.892,124.000 386.072 C 124.000 386.253,124.272 386.400,124.605 386.400 C 124.938 386.400,125.568 386.580,126.005 386.800 C 126.442 387.020,127.158 387.380,127.595 387.600 C 128.032 387.820,128.752 388.000,129.195 388.000 C 129.638 388.000,130.000 388.180,130.000 388.400 C 130.000 388.620,130.362 388.800,130.805 388.800 C 131.248 388.800,131.923 388.976,132.305 389.191 C 133.508 389.868,139.174 391.600,140.185 391.600 C 140.717 391.600,141.264 391.780,141.400 392.000 C 141.536 392.220,142.177 392.400,142.824 392.400 C 143.471 392.400,144.000 392.580,144.000 392.800 C 144.000 393.020,144.630 393.200,145.400 393.200 C 146.170 393.200,146.800 393.380,146.800 393.600 C 146.800 393.820,147.430 394.000,148.200 394.000 C 148.970 394.000,149.600 394.180,149.600 394.400 C 149.600 394.620,150.320 394.800,151.200 394.800 C 152.080 394.800,152.800 394.980,152.800 395.200 C 152.800 395.420,153.700 395.600,154.800 395.600 C 155.900 395.600,156.800 395.780,156.800 396.000 C 156.800 396.220,157.520 396.400,158.400 396.400 C 159.280 396.400,160.000 396.580,160.000 396.800 C 160.000 397.020,160.990 397.200,162.200 397.200 C 163.410 397.200,164.400 397.380,164.400 397.600 C 164.400 397.822,165.467 398.000,166.800 398.000 C 168.133 398.000,169.200 398.178,169.200 398.400 C 169.200 398.628,170.389 398.800,171.967 398.800 C 173.824 398.800,174.788 398.964,174.900 399.300 C 175.144 400.032,224.856 400.032,225.100 399.300 C 225.212 398.964,226.176 398.800,228.033 398.800 C 229.611 398.800,230.800 398.628,230.800 398.400 C 230.800 398.178,231.859 398.000,233.176 398.000 C 234.483 398.000,235.664 397.820,235.800 397.600 C 235.936 397.380,236.937 397.200,238.024 397.200 C 239.111 397.200,240.000 397.020,240.000 396.800 C 240.000 396.580,240.720 396.400,241.600 396.400 C 242.480 396.400,243.200 396.220,243.200 396.000 C 243.200 395.780,244.100 395.600,245.200 395.600 C 246.300 395.600,247.200 395.420,247.200 395.200 C 247.200 394.980,247.920 394.800,248.800 394.800 C 249.680 394.800,250.400 394.620,250.400 394.400 C 250.400 394.180,251.030 394.000,251.800 394.000 C 252.570 394.000,253.200 393.820,253.200 393.600 C 253.200 393.380,253.830 393.200,254.600 393.200 C 255.370 393.200,256.000 393.020,256.000 392.800 C 256.000 392.580,256.630 392.400,257.400 392.400 C 258.170 392.400,258.800 392.220,258.800 392.000 C 258.800 391.780,259.241 391.600,259.780 391.600 C 260.960 391.600,269.744 388.755,269.933 388.312 C 270.007 388.140,270.414 388.000,270.839 388.000 C 271.585 388.000,271.976 387.855,273.895 386.862 C 274.387 386.608,275.062 386.400,275.395 386.400 C 275.728 386.400,276.000 386.253,276.000 386.072 C 276.000 385.892,276.900 385.500,278.000 385.200 C 279.100 384.900,280.000 384.508,280.000 384.328 C 280.000 384.147,280.360 384.000,280.800 384.000 C 281.240 384.000,281.600 383.820,281.600 383.600 C 281.600 383.380,281.960 383.200,282.400 383.200 C 282.840 383.200,283.200 383.020,283.200 382.800 C 283.200 382.580,283.560 382.400,284.000 382.400 C 284.440 382.400,284.800 382.220,284.800 382.000 C 284.800 381.780,285.250 381.600,285.800 381.600 C 286.350 381.600,286.800 381.420,286.800 381.200 C 286.800 380.980,287.160 380.800,287.600 380.800 C 288.040 380.800,288.400 380.620,288.400 380.400 C 288.400 380.180,288.760 380.000,289.200 380.000 C 289.640 380.000,290.000 379.820,290.000 379.600 C 290.000 379.380,290.345 379.200,290.767 379.200 C 291.188 379.200,291.593 379.065,291.667 378.900 C 291.834 378.524,293.964 377.225,294.900 376.929 C 295.285 376.807,295.600 376.548,295.600 376.353 C 295.600 376.159,295.960 376.000,296.400 376.000 C 296.840 376.000,297.200 375.820,297.200 375.600 C 297.200 375.380,297.487 375.200,297.838 375.200 C 298.413 375.200,300.700 374.108,301.200 373.595 C 301.310 373.482,302.255 372.958,303.300 372.432 C 304.345 371.905,305.200 371.366,305.200 371.235 C 305.200 371.103,305.706 370.771,306.325 370.497 C 306.944 370.224,307.799 369.685,308.225 369.300 C 308.651 368.915,309.495 368.345,310.100 368.032 C 310.705 367.720,311.200 367.315,311.200 367.132 C 311.200 366.950,311.472 366.800,311.804 366.800 C 312.136 366.800,312.972 366.260,313.663 365.600 C 314.354 364.940,315.122 364.400,315.371 364.400 C 315.620 364.400,316.083 364.040,316.400 363.600 C 316.717 363.160,317.209 362.800,317.492 362.800 C 317.775 362.800,318.572 362.260,319.263 361.600 C 319.954 360.940,320.696 360.400,320.912 360.400 C 321.129 360.400,321.597 360.083,321.953 359.696 C 322.309 359.308,323.320 358.462,324.200 357.816 C 325.080 357.170,326.091 356.317,326.447 355.921 C 326.803 355.524,327.282 355.200,327.512 355.200 C 327.742 355.200,329.027 354.120,330.368 352.800 C 331.708 351.480,332.974 350.400,333.180 350.400 C 333.386 350.400,335.320 348.610,337.478 346.421 C 342.241 341.590,341.590 342.241,346.421 337.478 C 348.610 335.320,350.400 333.386,350.400 333.180 C 350.400 332.974,351.480 331.708,352.800 330.368 C 354.120 329.027,355.200 327.742,355.200 327.512 C 355.200 327.282,355.524 326.803,355.921 326.447 C 356.317 326.091,357.170 325.080,357.816 324.200 C 358.462 323.320,359.308 322.309,359.696 321.953 C 360.083 321.597,360.400 321.129,360.400 320.912 C 360.400 320.696,360.940 319.954,361.600 319.263 C 362.260 318.572,362.800 317.775,362.800 317.492 C 362.800 317.209,363.160 316.717,363.600 316.400 C 364.040 316.083,364.400 315.620,364.400 315.371 C 364.400 315.122,364.940 314.354,365.600 313.663 C 366.260 312.972,366.800 312.218,366.800 311.987 C 366.800 311.756,367.160 311.180,367.600 310.708 C 368.040 310.236,368.400 309.613,368.400 309.325 C 368.400 309.036,368.580 308.800,368.800 308.800 C 369.020 308.800,369.200 308.612,369.200 308.383 C 369.200 308.154,369.560 307.580,370.000 307.108 C 370.440 306.636,370.800 306.013,370.800 305.725 C 370.800 305.436,370.952 305.200,371.137 305.200 C 371.323 305.200,371.905 304.345,372.432 303.300 C 372.958 302.255,373.482 301.310,373.595 301.200 C 374.108 300.700,375.200 298.413,375.200 297.838 C 375.200 297.487,375.380 297.200,375.600 297.200 C 375.820 297.200,376.000 296.840,376.000 296.400 C 376.000 295.960,376.180 295.600,376.400 295.600 C 376.620 295.600,376.800 295.364,376.800 295.075 C 376.800 294.787,377.160 294.164,377.600 293.692 C 378.040 293.220,378.400 292.556,378.400 292.217 C 378.400 291.878,378.580 291.600,378.800 291.600 C 379.020 291.600,379.200 291.240,379.200 290.800 C 379.200 290.360,379.380 290.000,379.600 290.000 C 379.820 290.000,380.000 289.640,380.000 289.200 C 380.000 288.760,380.180 288.400,380.400 288.400 C 380.620 288.400,380.800 288.040,380.800 287.600 C 380.800 287.160,380.980 286.800,381.200 286.800 C 381.420 286.800,381.600 286.350,381.600 285.800 C 381.600 285.250,381.780 284.800,382.000 284.800 C 382.220 284.800,382.400 284.440,382.400 284.000 C 382.400 283.560,382.580 283.200,382.800 283.200 C 383.020 283.200,383.200 282.840,383.200 282.400 C 383.200 281.960,383.380 281.600,383.600 281.600 C 383.820 281.600,384.000 281.240,384.000 280.800 C 384.000 280.360,384.147 280.000,384.328 280.000 C 384.508 280.000,384.900 279.100,385.200 278.000 C 385.500 276.900,385.892 276.000,386.072 276.000 C 386.253 276.000,386.400 275.728,386.400 275.395 C 386.400 275.062,386.580 274.432,386.800 273.995 C 387.020 273.558,387.380 272.842,387.600 272.405 C 387.820 271.968,388.000 271.263,388.000 270.839 C 388.000 270.414,388.140 270.007,388.312 269.933 C 388.750 269.746,391.600 260.967,391.600 259.804 C 391.600 259.278,391.780 258.736,392.000 258.600 C 392.220 258.464,392.400 257.823,392.400 257.176 C 392.400 256.529,392.580 256.000,392.800 256.000 C 393.020 256.000,393.200 255.370,393.200 254.600 C 393.200 253.830,393.380 253.200,393.600 253.200 C 393.820 253.200,394.000 252.570,394.000 251.800 C 394.000 251.030,394.180 250.400,394.400 250.400 C 394.620 250.400,394.800 249.680,394.800 248.800 C 394.800 247.920,394.980 247.200,395.200 247.200 C 395.420 247.200,395.600 246.300,395.600 245.200 C 395.600 244.100,395.780 243.200,396.000 243.200 C 396.220 243.200,396.400 242.480,396.400 241.600 C 396.400 240.720,396.580 240.000,396.800 240.000 C 397.020 240.000,397.200 239.010,397.200 237.800 C 397.200 236.590,397.380 235.600,397.600 235.600 C 397.820 235.600,398.000 234.621,398.000 233.424 C 398.000 232.227,398.180 231.136,398.400 231.000 C 398.620 230.864,398.800 229.518,398.800 228.010 C 398.800 226.171,398.965 225.212,399.300 225.100 C 400.032 224.856,400.032 175.144,399.300 174.900 C 398.965 174.788,398.800 173.829,398.800 171.990 C 398.800 170.482,398.620 169.136,398.400 169.000 C 398.180 168.864,398.000 167.784,398.000 166.600 C 398.000 165.416,397.820 164.336,397.600 164.200 C 397.380 164.064,397.200 163.063,397.200 161.976 C 397.200 160.889,397.020 160.000,396.800 160.000 C 396.580 160.000,396.400 159.280,396.400 158.400 C 396.400 157.520,396.220 156.800,396.000 156.800 C 395.780 156.800,395.600 155.900,395.600 154.800 C 395.600 153.700,395.420 152.800,395.200 152.800 C 394.980 152.800,394.800 152.080,394.800 151.200 C 394.800 150.320,394.620 149.600,394.400 149.600 C 394.180 149.600,394.000 148.970,394.000 148.200 C 394.000 147.430,393.820 146.800,393.600 146.800 C 393.380 146.800,393.200 146.170,393.200 145.400 C 393.200 144.630,393.020 144.000,392.800 144.000 C 392.580 144.000,392.400 143.370,392.400 142.600 C 392.400 141.830,392.220 141.200,392.000 141.200 C 391.780 141.200,391.600 140.759,391.600 140.220 C 391.600 139.040,388.755 130.256,388.312 130.067 C 388.140 129.993,388.000 129.586,388.000 129.161 C 388.000 128.737,387.820 128.032,387.600 127.595 C 387.380 127.158,387.020 126.442,386.800 126.005 C 386.580 125.568,386.400 124.938,386.400 124.605 C 386.400 124.272,386.253 124.000,386.072 124.000 C 385.892 124.000,385.500 123.100,385.200 122.000 C 384.900 120.900,384.508 120.000,384.328 120.000 C 384.147 120.000,384.000 119.640,384.000 119.200 C 384.000 118.760,383.820 118.400,383.600 118.400 C 383.380 118.400,383.200 118.040,383.200 117.600 C 383.200 117.160,383.020 116.800,382.800 116.800 C 382.580 116.800,382.400 116.451,382.400 116.024 C 382.400 115.597,382.220 115.136,382.000 115.000 C 381.780 114.864,381.600 114.403,381.600 113.976 C 381.600 113.549,381.420 113.200,381.200 113.200 C 380.980 113.200,380.800 112.840,380.800 112.400 C 380.800 111.960,380.620 111.600,380.400 111.600 C 380.180 111.600,380.000 111.240,380.000 110.800 C 380.000 110.360,379.820 110.000,379.600 110.000 C 379.380 110.000,379.200 109.640,379.200 109.200 C 379.200 108.760,379.020 108.400,378.800 108.400 C 378.580 108.400,378.400 108.040,378.400 107.600 C 378.400 107.160,378.220 106.800,378.000 106.800 C 377.780 106.800,377.600 106.564,377.600 106.275 C 377.600 105.987,377.240 105.364,376.800 104.892 C 376.360 104.420,376.000 103.756,376.000 103.417 C 376.000 103.078,375.820 102.800,375.600 102.800 C 375.380 102.800,375.200 102.521,375.200 102.180 C 375.200 101.553,374.099 99.168,373.639 98.800 C 373.502 98.690,372.958 97.745,372.432 96.700 C 371.905 95.655,371.366 94.800,371.235 94.800 C 371.103 94.800,370.771 94.294,370.497 93.675 C 370.224 93.056,369.685 92.201,369.300 91.775 C 368.915 91.349,368.345 90.505,368.032 89.900 C 367.720 89.295,367.315 88.800,367.132 88.800 C 366.950 88.800,366.800 88.480,366.800 88.088 C 366.800 87.697,366.440 87.117,366.000 86.800 C 365.560 86.483,365.200 86.020,365.200 85.771 C 365.200 85.522,364.660 84.754,364.000 84.063 C 363.340 83.372,362.800 82.575,362.800 82.292 C 362.800 82.009,362.440 81.517,362.000 81.200 C 361.560 80.883,361.200 80.393,361.200 80.112 C 361.200 79.830,361.020 79.600,360.800 79.600 C 360.580 79.600,360.400 79.396,360.400 79.147 C 360.400 78.898,360.083 78.403,359.696 78.047 C 359.308 77.691,358.462 76.680,357.816 75.800 C 357.170 74.920,356.317 73.909,355.921 73.553 C 355.524 73.197,355.200 72.718,355.200 72.488 C 355.200 72.258,354.120 70.973,352.800 69.632 C 351.480 68.292,350.400 67.026,350.400 66.820 C 350.400 66.614,348.610 64.680,346.421 62.522 C 341.590 57.759,342.241 58.410,337.478 53.579 C 335.320 51.390,333.386 49.600,333.180 49.600 C 332.974 49.600,331.708 48.520,330.368 47.200 C 329.027 45.880,327.742 44.800,327.512 44.800 C 327.282 44.800,326.803 44.476,326.447 44.079 C 326.091 43.683,325.080 42.830,324.200 42.184 C 323.320 41.538,322.309 40.692,321.953 40.304 C 321.597 39.917,321.102 39.600,320.853 39.600 C 320.604 39.600,320.400 39.420,320.400 39.200 C 320.400 38.980,320.170 38.800,319.888 38.800 C 319.607 38.800,319.117 38.440,318.800 38.000 C 318.483 37.560,317.991 37.200,317.708 37.200 C 317.425 37.200,316.628 36.660,315.937 36.000 C 315.246 35.340,314.478 34.800,314.229 34.800 C 313.980 34.800,313.517 34.440,313.200 34.000 C 312.883 33.560,312.343 33.200,312.000 33.200 C 311.657 33.200,311.117 32.840,310.800 32.400 C 310.483 31.960,309.986 31.600,309.695 31.600 C 309.404 31.600,308.780 31.240,308.308 30.800 C 307.836 30.360,306.944 29.776,306.325 29.503 C 305.706 29.229,305.200 28.897,305.200 28.765 C 305.200 28.634,304.345 28.095,303.300 27.568 C 302.255 27.042,301.268 26.428,301.106 26.205 C 300.944 25.982,300.809 25.947,300.806 26.127 C 300.803 26.307,300.277 26.082,299.638 25.627 C 298.999 25.172,298.189 24.800,297.838 24.800 C 297.487 24.800,297.200 24.620,297.200 24.400 C 297.200 24.180,296.855 24.000,296.433 24.000 C 296.012 24.000,295.607 23.865,295.533 23.700 C 295.366 23.324,293.236 22.025,292.300 21.729 C 291.915 21.607,291.600 21.348,291.600 21.153 C 291.600 20.959,291.240 20.800,290.800 20.800 C 290.360 20.800,290.000 20.620,290.000 20.400 C 290.000 20.180,289.640 20.000,289.200 20.000 C 288.760 20.000,288.399 19.865,288.397 19.700 C 288.393 19.294,286.414 18.400,285.520 18.400 C 285.124 18.400,284.800 18.220,284.800 18.000 C 284.800 17.780,284.440 17.600,284.000 17.600 C 283.560 17.600,283.200 17.420,283.200 17.200 C 283.200 16.980,282.840 16.800,282.400 16.800 C 281.960 16.800,281.600 16.620,281.600 16.400 C 281.600 16.180,281.240 16.000,280.800 16.000 C 280.360 16.000,280.000 15.853,280.000 15.672 C 280.000 15.492,279.100 15.100,278.000 14.800 C 276.900 14.500,276.000 14.108,276.000 13.928 C 276.000 13.747,275.728 13.600,275.395 13.600 C 275.062 13.600,274.387 13.392,273.895 13.138 C 271.976 12.145,271.585 12.000,270.839 12.000 C 270.414 12.000,270.007 11.860,269.933 11.688 C 269.744 11.245,260.960 8.400,259.780 8.400 C 259.241 8.400,258.800 8.220,258.800 8.000 C 258.800 7.780,258.170 7.600,257.400 7.600 C 256.630 7.600,256.000 7.420,256.000 7.200 C 256.000 6.980,255.471 6.800,254.824 6.800 C 254.177 6.800,253.536 6.620,253.400 6.400 C 253.264 6.180,252.533 6.000,251.776 6.000 C 251.019 6.000,250.400 5.820,250.400 5.600 C 250.400 5.380,249.680 5.200,248.800 5.200 C 247.920 5.200,247.200 5.020,247.200 4.800 C 247.200 4.580,246.300 4.400,245.200 4.400 C 244.100 4.400,243.200 4.220,243.200 4.000 C 243.200 3.780,242.480 3.600,241.600 3.600 C 240.720 3.600,240.000 3.420,240.000 3.200 C 240.000 2.980,239.111 2.800,238.024 2.800 C 236.937 2.800,235.936 2.620,235.800 2.400 C 235.664 2.180,234.584 2.000,233.400 2.000 C 232.216 2.000,231.136 1.820,231.000 1.600 C 230.864 1.380,229.518 1.200,228.010 1.200 C 226.193 1.200,225.211 1.034,225.103 0.708 C 224.941 0.222,187.291 -0.126,178.300 0.275 M218.600 17.552 C 219.920 17.768,222.620 18.143,224.600 18.385 C 231.078 19.175,235.252 19.977,244.600 22.227 C 252.285 24.077,263.045 27.592,269.000 30.199 C 269.660 30.487,270.920 31.019,271.800 31.380 C 306.572 45.646,341.894 77.200,359.360 109.600 C 361.190 112.995,367.131 124.833,367.591 126.000 C 367.894 126.770,368.542 128.300,369.032 129.400 C 371.673 135.336,375.559 147.038,377.600 155.200 C 377.820 156.080,378.178 157.475,378.396 158.300 C 378.613 159.125,379.161 161.780,379.613 164.200 C 382.561 179.979,382.632 181.583,380.400 182.090 C 376.388 183.001,362.476 185.437,358.000 186.012 C 356.350 186.224,353.740 186.580,352.200 186.803 C 347.176 187.531,337.071 188.670,330.800 189.215 C 315.694 190.529,284.472 192.020,283.100 191.494 C 282.688 191.336,282.367 190.555,282.209 189.323 C 278.395 159.616,257.042 132.142,230.200 122.404 C 226.475 121.052,222.378 119.746,220.400 119.280 C 211.496 117.182,209.978 117.011,200.200 117.005 C 190.455 117.000,188.061 117.262,179.700 119.252 C 150.406 126.225,125.281 152.276,119.182 182.000 C 118.934 183.210,118.566 184.851,118.365 185.646 C 118.164 186.442,118.000 187.759,118.000 188.573 C 118.000 191.481,117.774 191.601,112.286 191.595 C 107.328 191.589,84.318 190.586,80.878 190.225 C 79.845 190.116,76.390 189.838,73.200 189.607 C 65.761 189.067,56.012 188.075,49.200 187.166 C 35.341 185.316,32.027 184.781,21.874 182.750 L 17.549 181.885 17.790 179.242 C 19.085 165.082,24.566 143.666,30.291 130.400 C 30.623 129.630,31.165 128.370,31.495 127.600 C 32.972 124.153,33.436 123.154,35.393 119.200 C 38.139 113.652,40.607 109.083,42.257 106.492 C 42.996 105.333,43.600 104.293,43.600 104.180 C 43.600 103.339,54.206 88.546,58.355 83.601 C 59.370 82.392,60.650 80.865,61.200 80.209 C 68.880 71.040,83.134 58.032,93.000 51.187 C 94.100 50.424,95.090 49.691,95.200 49.558 C 95.501 49.193,102.960 44.370,106.600 42.187 C 110.100 40.088,123.922 33.024,126.800 31.864 C 129.454 30.794,130.057 30.544,131.600 29.875 C 132.370 29.541,133.990 28.908,135.200 28.469 C 136.410 28.030,138.480 27.276,139.800 26.793 C 144.593 25.042,154.807 22.182,161.337 20.763 C 168.596 19.187,177.990 17.829,186.000 17.199 C 191.386 16.776,215.452 17.036,218.600 17.552 M206.274 166.980 C 233.005 172.668,242.848 204.646,223.747 223.747 C 202.099 245.395,165.129 229.040,166.504 198.423 C 167.419 178.066,186.707 162.817,206.274 166.980 M25.400 199.776 C 41.556 202.685,56.126 204.495,75.800 206.036 C 84.391 206.709,94.781 207.188,106.200 207.438 C 118.623 207.711,117.781 207.401,118.398 211.917 C 118.853 215.251,120.085 221.087,120.779 223.200 C 120.959 223.750,121.339 225.010,121.623 226.000 C 121.907 226.990,122.288 227.971,122.470 228.180 C 122.651 228.389,122.800 228.796,122.800 229.084 C 122.800 231.238,129.620 243.841,133.902 249.600 C 138.149 255.313,141.424 258.757,148.000 264.426 C 149.324 265.567,156.635 270.800,156.906 270.800 C 157.023 270.800,158.262 271.482,159.659 272.315 C 162.054 273.744,166.833 276.138,168.600 276.795 C 169.431 277.104,170.685 277.601,172.400 278.301 C 172.950 278.525,174.210 278.930,175.200 279.201 C 176.190 279.471,177.450 279.831,178.000 280.000 C 180.912 280.895,183.741 281.492,189.246 282.375 C 192.692 282.928,207.855 282.924,210.976 282.369 C 216.519 281.384,217.878 281.121,219.400 280.739 C 221.726 280.155,226.455 278.762,227.500 278.352 C 227.995 278.159,228.805 277.844,229.300 277.654 C 251.601 269.068,270.120 250.184,277.600 228.400 C 277.864 227.630,278.222 226.640,278.395 226.200 C 278.567 225.760,278.930 224.590,279.201 223.600 C 279.471 222.610,279.833 221.350,280.004 220.800 C 280.292 219.873,280.665 218.077,281.627 213.000 C 281.835 211.900,282.049 210.372,282.103 209.605 C 282.229 207.787,282.973 207.652,293.000 207.628 C 304.515 207.600,323.784 206.385,344.000 204.412 C 350.391 203.788,364.595 201.864,370.800 200.782 C 374.162 200.196,377.394 199.602,379.600 199.165 C 383.648 198.363,383.383 198.185,383.533 201.800 C 383.956 211.951,381.200 232.548,377.538 246.600 C 376.117 252.052,373.843 259.312,373.186 260.495 C 372.974 260.877,372.800 261.464,372.800 261.800 C 372.800 262.136,372.641 262.723,372.447 263.105 C 372.002 263.980,371.459 265.305,370.604 267.600 C 370.236 268.590,369.698 269.940,369.410 270.600 C 369.122 271.260,368.376 272.970,367.752 274.400 C 365.915 278.612,362.127 286.118,359.935 289.892 C 358.814 291.821,357.570 293.973,357.170 294.674 C 354.516 299.323,345.944 311.406,341.330 317.000 C 335.494 324.076,323.475 336.088,317.000 341.316 C 310.303 346.724,304.353 351.045,297.800 355.261 C 294.640 357.295,294.117 357.607,289.400 360.282 C 282.004 364.476,267.696 370.960,261.211 373.055 C 260.215 373.377,259.040 373.792,258.600 373.977 C 257.699 374.355,254.118 375.488,252.000 376.064 C 251.230 376.274,250.060 376.603,249.400 376.795 C 222.922 384.514,184.371 385.756,161.800 379.618 C 161.140 379.439,159.520 379.072,158.200 378.803 C 156.880 378.534,155.350 378.175,154.800 378.004 C 154.250 377.833,152.990 377.471,152.000 377.200 C 151.010 376.929,149.750 376.570,149.200 376.402 C 148.650 376.234,146.850 375.693,145.200 375.201 C 143.550 374.708,141.840 374.155,141.400 373.973 C 140.960 373.790,139.790 373.378,138.800 373.058 C 129.405 370.020,111.779 361.584,104.000 356.403 C 102.790 355.597,101.530 354.837,101.200 354.715 C 100.210 354.346,90.871 347.705,86.800 344.474 C 76.145 336.016,65.524 325.628,57.894 316.200 C 53.574 310.862,51.421 307.973,47.833 302.695 C 45.505 299.271,43.600 296.274,43.600 296.035 C 43.600 295.796,43.441 295.600,43.247 295.600 C 43.052 295.600,42.787 295.285,42.658 294.900 C 42.528 294.515,42.098 293.660,41.702 293.000 C 38.996 288.489,37.851 286.381,35.508 281.600 C 32.363 275.180,31.065 272.310,29.724 268.806 C 28.475 265.544,28.001 264.386,27.553 263.505 C 27.359 263.123,27.200 262.459,27.200 262.029 C 27.200 261.599,27.020 261.136,26.800 261.000 C 26.580 260.864,26.400 260.313,26.400 259.776 C 26.400 259.239,26.220 258.800,26.000 258.800 C 25.780 258.800,25.600 258.361,25.600 257.824 C 25.600 257.287,25.420 256.736,25.200 256.600 C 24.980 256.464,24.800 255.924,24.800 255.400 C 24.800 254.876,24.620 254.336,24.400 254.200 C 24.180 254.064,24.000 253.434,24.000 252.800 C 24.000 252.166,23.820 251.536,23.600 251.400 C 23.380 251.264,23.200 250.634,23.200 250.000 C 23.200 249.366,23.020 248.736,22.800 248.600 C 22.580 248.464,22.400 247.834,22.400 247.200 C 22.400 246.566,22.239 245.948,22.042 245.826 C 21.845 245.705,21.587 244.929,21.468 244.103 C 21.349 243.276,21.060 241.745,20.826 240.700 C 19.537 234.951,19.170 233.081,18.410 228.400 C 17.116 220.439,16.429 212.067,16.412 204.058 L 16.400 198.316 17.900 198.506 C 18.725 198.610,22.100 199.181,25.400 199.776 " stroke="none" fill="#485459" fill-rule="evenodd"></path><path id="path2" d="M191.600 168.140 C 188.311 169.012,183.539 171.042,183.267 171.685 C 183.193 171.858,182.921 172.000,182.661 172.000 C 181.397 172.000,176.321 176.670,173.377 180.542 C 165.088 191.444,165.082 208.451,173.365 219.468 C 175.797 222.704,181.549 227.975,182.667 227.993 C 182.923 227.997,183.193 228.144,183.267 228.320 C 183.340 228.496,184.570 229.185,186.000 229.852 C 188.441 230.990,189.318 231.286,193.446 232.368 C 194.352 232.606,197.301 232.800,200.000 232.800 C 202.699 232.800,205.648 232.606,206.554 232.368 C 210.677 231.287,211.559 230.990,214.000 229.860 C 220.760 226.731,226.652 220.887,229.731 214.258 C 230.978 211.572,231.295 210.646,232.368 206.554 C 232.606 205.648,232.800 202.699,232.800 200.000 C 232.800 197.301,232.606 194.352,232.368 193.446 C 231.295 189.354,230.978 188.428,229.731 185.742 C 223.223 171.730,206.746 164.124,191.600 168.140 M17.088 199.445 C 16.758 199.775,17.131 211.262,17.625 216.000 C 18.666 225.978,18.843 227.270,20.009 233.400 C 23.256 250.472,28.068 264.893,35.625 280.200 C 37.797 284.600,40.128 289.100,40.805 290.200 C 41.482 291.300,42.138 292.515,42.264 292.900 C 42.390 293.285,42.652 293.600,42.847 293.600 C 43.041 293.600,43.200 293.785,43.200 294.011 C 43.200 294.581,52.727 308.672,54.615 310.894 C 55.047 311.403,56.208 312.894,57.197 314.209 C 58.185 315.524,59.270 316.870,59.608 317.200 C 59.946 317.530,61.208 318.970,62.411 320.400 C 65.051 323.536,76.284 334.842,78.800 336.895 C 79.790 337.703,81.320 339.010,82.200 339.799 C 83.080 340.588,84.790 341.991,85.999 342.917 C 87.209 343.843,88.647 345.005,89.195 345.500 C 89.743 345.995,90.316 346.400,90.467 346.400 C 90.619 346.400,90.985 346.642,91.280 346.938 C 92.225 347.882,103.100 355.200,103.559 355.200 C 103.801 355.200,104.000 355.335,104.000 355.501 C 104.000 355.666,104.855 356.247,105.900 356.791 C 106.945 357.335,107.890 357.875,108.000 357.990 C 108.110 358.106,108.630 358.442,109.155 358.738 C 109.680 359.033,110.760 359.651,111.555 360.110 C 115.680 362.492,127.675 368.113,132.600 369.972 C 135.608 371.107,136.813 371.598,137.695 372.047 C 138.077 372.241,138.741 372.400,139.171 372.400 C 139.601 372.400,140.064 372.580,140.200 372.800 C 140.336 373.020,140.876 373.200,141.400 373.200 C 141.924 373.200,142.464 373.380,142.600 373.600 C 142.736 373.820,143.276 374.000,143.800 374.000 C 144.324 374.000,144.864 374.180,145.000 374.400 C 145.136 374.620,145.676 374.800,146.200 374.800 C 146.724 374.800,147.264 374.980,147.400 375.200 C 147.536 375.420,148.166 375.600,148.800 375.600 C 149.434 375.600,150.064 375.780,150.200 376.000 C 150.336 376.220,150.966 376.400,151.600 376.400 C 152.234 376.400,152.864 376.580,153.000 376.800 C 153.136 377.020,153.856 377.200,154.600 377.200 C 155.344 377.200,156.052 377.361,156.174 377.558 C 156.295 377.755,157.071 378.010,157.897 378.125 C 158.724 378.240,160.210 378.534,161.200 378.778 C 162.190 379.021,163.990 379.390,165.200 379.597 C 166.410 379.804,168.390 380.162,169.600 380.392 C 184.854 383.291,213.688 383.485,228.300 380.788 C 229.455 380.574,231.390 380.220,232.600 380.000 C 237.771 379.060,239.453 378.703,240.319 378.362 C 240.824 378.163,241.759 378.000,242.395 378.000 C 243.032 378.000,243.664 377.820,243.800 377.600 C 243.936 377.380,244.656 377.200,245.400 377.200 C 246.144 377.200,246.864 377.020,247.000 376.800 C 247.136 376.580,247.766 376.400,248.400 376.400 C 249.034 376.400,249.664 376.220,249.800 376.000 C 249.936 375.780,250.566 375.600,251.200 375.600 C 251.834 375.600,252.464 375.420,252.600 375.200 C 252.736 374.980,253.289 374.800,253.829 374.800 C 254.369 374.800,255.123 374.629,255.505 374.419 C 255.887 374.209,257.370 373.657,258.800 373.193 C 260.230 372.728,261.805 372.179,262.300 371.974 C 263.888 371.314,264.947 370.898,267.400 369.969 C 273.051 367.830,284.600 362.390,288.600 359.985 C 289.700 359.323,290.870 358.664,291.200 358.520 C 291.530 358.376,291.890 358.151,292.000 358.019 C 292.110 357.888,293.055 357.335,294.100 356.791 C 295.145 356.247,296.000 355.666,296.000 355.501 C 296.000 355.335,296.186 355.200,296.413 355.200 C 296.992 355.200,307.872 347.798,311.406 345.000 C 315.409 341.831,317.417 340.215,317.600 340.017 C 317.710 339.897,319.150 338.634,320.800 337.210 C 326.088 332.647,335.570 322.914,340.230 317.266 C 340.653 316.753,341.335 315.943,341.745 315.466 C 342.155 314.990,342.965 313.970,343.545 313.200 C 344.125 312.430,345.005 311.352,345.500 310.804 C 345.995 310.256,346.400 309.684,346.400 309.533 C 346.400 309.381,346.625 309.018,346.900 308.726 C 348.167 307.379,355.200 296.947,355.200 296.413 C 355.200 296.186,355.335 296.000,355.501 296.000 C 355.666 296.000,356.247 295.145,356.791 294.100 C 357.335 293.055,357.875 292.110,357.990 292.000 C 358.247 291.755,359.066 290.327,360.170 288.200 C 360.626 287.320,361.094 286.510,361.210 286.400 C 361.453 286.168,366.800 275.261,366.800 274.997 C 366.800 274.900,367.309 273.691,367.931 272.310 C 368.553 270.930,369.470 268.720,369.970 267.400 C 371.114 264.375,371.601 263.182,372.047 262.305 C 372.241 261.923,372.400 261.259,372.400 260.829 C 372.400 260.399,372.580 259.936,372.800 259.800 C 373.020 259.664,373.200 259.149,373.200 258.656 C 373.200 258.163,373.349 257.589,373.530 257.380 C 373.712 257.171,374.090 256.190,374.369 255.200 C 374.649 254.210,375.040 253.087,375.239 252.705 C 375.438 252.323,375.600 251.569,375.600 251.029 C 375.600 250.489,375.780 249.936,376.000 249.800 C 376.220 249.664,376.400 249.034,376.400 248.400 C 376.400 247.766,376.580 247.136,376.800 247.000 C 377.020 246.864,377.200 246.144,377.200 245.400 C 377.200 244.656,377.380 243.936,377.600 243.800 C 377.820 243.664,378.000 243.081,378.000 242.505 C 378.000 241.928,378.169 240.904,378.376 240.228 C 378.718 239.111,378.993 237.797,380.012 232.400 C 381.447 224.804,382.399 215.666,382.690 206.700 L 382.920 199.600 381.760 199.600 C 381.122 199.601,379.250 199.886,377.600 200.236 C 375.950 200.585,373.610 201.028,372.400 201.219 C 357.417 203.591,356.683 203.690,345.400 204.832 C 343.200 205.054,339.690 205.410,337.600 205.623 C 327.096 206.692,314.927 207.414,297.400 208.010 C 289.700 208.271,283.262 208.614,283.092 208.771 C 282.923 208.927,282.510 210.753,282.175 212.828 C 281.236 218.630,279.557 225.177,278.027 229.000 C 276.416 233.025,275.523 235.021,273.777 238.506 C 269.209 247.617,261.682 257.011,253.200 264.187 C 249.777 267.082,242.759 272.000,242.049 272.000 C 241.839 272.000,241.607 272.155,241.533 272.344 C 241.229 273.128,230.447 278.021,225.400 279.664 C 207.622 285.453,184.713 284.588,168.834 277.527 C 156.845 272.195,148.348 266.410,140.357 258.136 C 128.285 245.636,119.827 228.311,117.795 211.916 C 117.341 208.252,118.369 208.521,102.800 207.993 C 88.925 207.523,82.544 207.197,72.200 206.431 C 58.422 205.411,39.466 203.057,27.200 200.843 C 25.990 200.625,23.470 200.169,21.600 199.830 C 17.744 199.132,17.428 199.105,17.088 199.445 " stroke="none" fill="#f2f2f2" fill-rule="evenodd"></path><path id="path3" d="M197.700 167.096 C 198.965 167.175,201.035 167.175,202.300 167.096 C 203.565 167.016,202.530 166.951,200.000 166.951 C 197.470 166.951,196.435 167.016,197.700 167.096 M192.200 167.619 C 191.642 167.871,191.885 167.907,193.000 167.738 C 193.880 167.604,194.675 167.428,194.767 167.347 C 195.110 167.044,192.968 167.271,192.200 167.619 M205.233 167.347 C 205.325 167.428,206.120 167.604,207.000 167.738 C 208.115 167.907,208.358 167.871,207.800 167.619 C 207.032 167.271,204.890 167.044,205.233 167.347 M209.400 168.400 C 210.501 168.873,210.892 168.873,210.600 168.400 C 210.464 168.180,209.958 168.013,209.476 168.028 C 208.631 168.055,208.629 168.069,209.400 168.400 M178.800 174.434 L 177.000 176.065 178.900 174.584 C 180.566 173.286,181.059 172.797,180.700 172.801 C 180.645 172.802,179.790 173.536,178.800 174.434 M219.200 172.925 C 219.200 173.023,220.055 173.791,221.100 174.632 C 222.145 175.472,222.640 175.745,222.200 175.237 C 221.374 174.283,219.200 172.608,219.200 172.925 M174.755 178.300 C 173.410 179.787,172.660 180.800,172.903 180.800 C 173.013 180.800,173.767 179.990,174.579 179.000 C 176.206 177.014,176.317 176.572,174.755 178.300 M225.368 178.900 C 226.209 179.945,226.977 180.800,227.075 180.800 C 227.392 180.800,225.717 178.626,224.763 177.800 C 224.255 177.360,224.528 177.855,225.368 178.900 M168.267 189.467 C 168.120 189.613,168.011 190.108,168.025 190.567 C 168.049 191.333,168.082 191.323,168.434 190.442 C 168.826 189.463,168.744 188.989,168.267 189.467 M167.456 192.484 C 167.321 192.988,167.227 193.760,167.246 194.200 C 167.265 194.640,167.445 194.298,167.646 193.440 C 168.036 191.778,167.870 190.940,167.456 192.484 M232.056 192.200 C 232.056 192.640,232.211 193.360,232.400 193.800 L 232.744 194.600 232.744 193.800 C 232.744 193.360,232.589 192.640,232.400 192.200 L 232.056 191.400 232.056 192.200 M166.951 200.000 C 166.951 202.530,167.016 203.565,167.096 202.300 C 167.175 201.035,167.175 198.965,167.096 197.700 C 167.016 196.435,166.951 197.470,166.951 200.000 M232.948 200.000 C 232.948 202.310,233.014 203.255,233.095 202.100 C 233.176 200.945,233.176 199.055,233.095 197.900 C 233.014 196.745,232.948 197.690,232.948 200.000 M16.599 199.700 C 16.479 200.195,16.553 203.030,16.761 206.000 L 17.140 211.400 17.070 205.421 L 17.000 199.442 18.000 199.161 L 19.000 198.880 17.908 198.840 C 17.088 198.810,16.761 199.025,16.599 199.700 M377.600 199.785 C 375.070 200.291,371.650 200.931,370.000 201.207 C 368.350 201.484,366.370 201.861,365.600 202.045 C 361.729 202.971,369.556 201.784,376.782 200.351 C 378.862 199.938,381.061 199.600,381.669 199.600 L 382.775 199.600 382.908 204.300 L 383.041 209.000 383.021 204.033 C 382.997 198.235,383.475 198.611,377.600 199.785 M20.200 199.600 C 21.892 200.031,23.344 200.031,22.000 199.600 C 21.450 199.424,20.550 199.283,20.000 199.287 C 19.102 199.294,19.122 199.326,20.200 199.600 M24.800 200.400 C 25.350 200.576,26.160 200.726,26.600 200.732 L 27.400 200.744 26.600 200.400 C 26.160 200.211,25.350 200.062,24.800 200.068 L 23.800 200.080 24.800 200.400 M29.200 201.200 C 29.750 201.376,30.560 201.520,31.000 201.520 C 31.633 201.520,31.592 201.454,30.800 201.200 C 30.250 201.024,29.440 200.880,29.000 200.880 C 28.367 200.880,28.408 200.946,29.200 201.200 M34.200 202.000 C 34.860 202.168,35.850 202.305,36.400 202.305 C 37.292 202.305,37.270 202.272,36.200 202.000 C 35.540 201.832,34.550 201.695,34.000 201.695 C 33.108 201.695,33.130 201.728,34.200 202.000 M39.400 202.800 C 39.840 202.989,40.740 203.135,41.400 203.125 L 42.600 203.105 41.400 202.800 C 40.740 202.632,39.840 202.486,39.400 202.475 L 38.600 202.456 39.400 202.800 M359.600 202.821 C 358.952 203.042,359.445 203.080,361.000 202.931 C 362.320 202.804,363.475 202.632,363.567 202.550 C 363.890 202.259,360.586 202.484,359.600 202.821 M45.200 203.600 C 45.750 203.776,46.830 203.917,47.600 203.914 L 49.000 203.908 47.400 203.577 C 45.263 203.135,43.796 203.150,45.200 203.600 M353.800 203.600 L 352.600 203.905 353.800 203.923 C 354.460 203.933,355.810 203.797,356.800 203.620 L 358.600 203.300 356.800 203.297 C 355.810 203.296,354.460 203.432,353.800 203.600 M51.600 204.379 C 52.586 204.716,55.890 204.941,55.567 204.650 C 55.475 204.568,54.320 204.396,53.000 204.269 C 51.445 204.120,50.952 204.158,51.600 204.379 M347.000 204.400 L 345.800 204.705 347.200 204.713 C 347.970 204.717,349.050 204.576,349.600 204.400 C 350.999 203.952,348.761 203.952,347.000 204.400 M59.000 205.223 C 59.880 205.405,61.320 205.540,62.200 205.524 C 63.767 205.494,63.759 205.487,61.800 205.182 C 58.956 204.739,56.812 204.770,59.000 205.223 M339.000 205.200 L 337.400 205.486 339.000 205.496 C 339.880 205.501,341.140 205.368,341.800 205.200 L 343.000 204.895 341.800 204.904 C 341.140 204.909,339.880 205.042,339.000 205.200 M167.228 206.033 C 167.244 206.565,167.419 207.360,167.619 207.800 C 167.871 208.358,167.907 208.115,167.738 207.000 C 167.455 205.143,167.187 204.636,167.228 206.033 M66.600 205.982 C 67.798 206.305,72.682 206.533,72.367 206.251 C 72.275 206.170,70.670 206.003,68.800 205.881 C 66.771 205.748,65.884 205.789,66.600 205.982 M232.200 206.800 C 232.048 207.491,232.014 208.147,232.124 208.257 C 232.234 208.367,232.448 207.891,232.600 207.200 C 232.752 206.509,232.786 205.853,232.676 205.743 C 232.566 205.633,232.352 206.109,232.200 206.800 M330.600 206.000 L 328.600 206.274 330.600 206.290 C 331.700 206.298,333.140 206.168,333.800 206.000 L 335.000 205.695 333.800 205.710 C 333.140 205.719,331.700 205.849,330.600 206.000 M77.600 206.811 C 79.389 207.139,85.085 207.332,84.767 207.055 C 84.675 206.975,82.620 206.813,80.200 206.695 C 77.323 206.555,76.423 206.595,77.600 206.811 M319.400 206.800 L 317.000 207.066 319.200 207.110 C 320.410 207.134,322.120 207.005,323.000 206.823 L 324.600 206.492 323.200 206.513 C 322.430 206.525,320.720 206.654,319.400 206.800 M90.600 207.609 C 93.062 207.921,101.066 208.115,100.767 207.855 C 100.675 207.775,97.810 207.619,94.400 207.507 C 90.737 207.387,89.182 207.429,90.600 207.609 M304.600 207.600 L 301.000 207.849 304.400 207.885 C 306.270 207.905,308.790 207.784,310.000 207.617 L 312.200 207.313 310.200 207.332 C 309.100 207.343,306.580 207.463,304.600 207.600 M111.794 208.300 C 117.060 208.440,117.174 208.486,117.646 210.680 L 117.974 212.200 117.817 210.442 C 117.608 208.097,117.359 208.000,111.800 208.092 L 107.000 208.172 111.794 208.300 M282.880 208.480 C 282.616 208.744,282.413 209.239,282.428 209.580 C 282.448 210.008,282.553 209.952,282.768 209.400 C 283.052 208.669,283.557 208.581,288.639 208.383 L 294.200 208.165 288.780 208.083 C 284.999 208.025,283.215 208.145,282.880 208.480 M168.028 209.476 C 168.013 209.958,168.180 210.464,168.400 210.600 C 168.873 210.892,168.873 210.501,168.400 209.400 C 168.069 208.629,168.055 208.631,168.028 209.476 M282.093 211.600 C 282.093 212.370,282.175 212.685,282.276 212.300 C 282.376 211.915,282.376 211.285,282.276 210.900 C 282.175 210.515,282.093 210.830,282.093 211.600 M382.284 214.551 C 382.110 216.944,382.049 218.982,382.147 219.081 C 382.422 219.355,382.885 213.607,382.734 211.800 C 382.660 210.920,382.458 212.158,382.284 214.551 M118.080 213.800 C 118.080 214.240,118.224 215.050,118.400 215.600 C 118.654 216.392,118.720 216.433,118.720 215.800 C 118.720 215.360,118.576 214.550,118.400 214.000 C 118.146 213.208,118.080 213.167,118.080 213.800 M281.400 215.200 C 281.246 216.110,281.204 216.938,281.307 217.040 C 281.410 217.143,281.613 216.477,281.760 215.560 C 281.907 214.643,281.948 213.815,281.853 213.720 C 281.758 213.624,281.554 214.290,281.400 215.200 M17.273 215.800 C 17.258 216.680,17.395 218.120,17.577 219.000 L 17.908 220.600 17.924 219.200 C 17.933 218.430,17.797 216.990,17.620 216.000 L 17.300 214.200 17.273 215.800 M118.868 218.000 C 118.888 219.039,119.518 220.746,119.532 219.800 C 119.538 219.360,119.389 218.640,119.200 218.200 C 118.989 217.710,118.861 217.632,118.868 218.000 M173.512 220.258 C 174.698 221.948,180.445 227.288,180.751 226.983 C 180.884 226.849,180.635 226.554,180.197 226.326 C 179.759 226.099,177.877 224.357,176.015 222.456 C 174.153 220.555,173.027 219.566,173.512 220.258 M223.704 222.723 C 219.923 226.712,219.349 227.603,222.631 224.386 C 224.632 222.426,227.477 219.164,227.134 219.223 C 227.060 219.236,225.517 220.811,223.704 222.723 M381.464 222.150 C 381.301 223.663,381.250 224.983,381.351 225.084 C 381.614 225.347,382.110 221.050,381.919 220.153 C 381.831 219.739,381.626 220.638,381.464 222.150 M119.656 221.200 C 119.656 221.530,119.811 222.160,120.000 222.600 C 120.217 223.104,120.344 223.178,120.344 222.800 C 120.344 222.470,120.189 221.840,120.000 221.400 C 119.783 220.896,119.656 220.822,119.656 221.200 M18.093 223.000 C 18.094 223.660,18.232 224.740,18.400 225.400 C 18.823 227.063,18.842 225.426,18.423 223.400 C 18.145 222.055,18.092 221.991,18.093 223.000 M279.646 222.867 C 279.621 223.234,279.496 223.864,279.370 224.267 C 279.152 224.962,279.163 224.963,279.597 224.287 C 279.848 223.896,279.973 223.266,279.873 222.887 C 279.711 222.268,279.688 222.266,279.646 222.867 M380.600 228.800 C 380.446 229.710,380.411 230.544,380.521 230.654 C 380.631 230.764,380.846 230.110,381.000 229.200 C 381.154 228.290,381.189 227.456,381.079 227.346 C 380.969 227.236,380.754 227.890,380.600 228.800 M18.868 229.000 C 18.874 229.440,19.024 230.250,19.200 230.800 L 19.520 231.800 19.532 230.800 C 19.538 230.250,19.389 229.440,19.200 229.000 L 18.856 228.200 18.868 229.000 M379.822 233.022 C 379.672 233.825,379.638 234.572,379.748 234.682 C 379.858 234.792,380.072 234.225,380.222 233.422 C 380.373 232.619,380.406 231.873,380.296 231.763 C 380.186 231.653,379.973 232.219,379.822 233.022 M192.200 232.400 C 192.640 232.589,193.360 232.744,193.800 232.744 L 194.600 232.744 193.800 232.400 C 193.360 232.211,192.640 232.056,192.200 232.056 L 191.400 232.056 192.200 232.400 M206.200 232.400 L 205.400 232.744 206.200 232.744 C 206.640 232.744,207.360 232.589,207.800 232.400 L 208.600 232.056 207.800 232.056 C 207.360 232.056,206.640 232.211,206.200 232.400 M19.668 233.400 C 19.674 233.840,19.824 234.650,20.000 235.200 L 20.320 236.200 20.332 235.200 C 20.338 234.650,20.189 233.840,20.000 233.400 L 19.656 232.600 19.668 233.400 M123.953 233.675 C 124.548 235.242,126.783 239.600,126.991 239.600 C 127.190 239.600,124.165 233.231,123.786 232.853 C 123.657 232.723,123.731 233.093,123.953 233.675 M197.900 233.095 C 199.055 233.176,200.945 233.176,202.100 233.095 C 203.255 233.014,202.310 232.948,200.000 232.948 C 197.690 232.948,196.745 233.014,197.900 233.095 M378.978 237.378 C 378.827 238.181,378.794 238.927,378.904 239.037 C 379.014 239.147,379.227 238.581,379.378 237.778 C 379.528 236.975,379.562 236.228,379.452 236.118 C 379.342 236.008,379.128 236.575,378.978 237.378 M20.468 237.200 C 20.488 238.239,21.118 239.946,21.132 239.000 C 21.138 238.560,20.989 237.840,20.800 237.400 C 20.589 236.910,20.461 236.832,20.468 237.200 M378.273 240.553 C 378.123 240.945,378.011 241.566,378.025 241.933 C 378.042 242.375,378.181 242.274,378.437 241.634 C 378.649 241.103,378.761 240.482,378.685 240.254 C 378.609 240.027,378.424 240.161,378.273 240.553 M21.268 240.800 C 21.288 241.839,21.918 243.546,21.932 242.600 C 21.938 242.160,21.789 241.440,21.600 241.000 C 21.389 240.510,21.261 240.432,21.268 240.800 M271.952 241.300 C 271.690 241.795,271.215 242.650,270.896 243.200 C 270.339 244.159,270.343 244.167,270.988 243.400 C 271.786 242.452,272.905 240.400,272.624 240.400 C 272.516 240.400,272.214 240.805,271.952 241.300 M377.467 243.867 C 377.320 244.013,377.211 244.508,377.225 244.967 C 377.249 245.733,377.282 245.723,377.634 244.842 C 378.026 243.863,377.944 243.389,377.467 243.867 M22.034 244.400 C 22.046 244.730,22.211 245.360,22.400 245.800 L 22.744 246.600 22.766 245.800 C 22.778 245.360,22.613 244.730,22.400 244.400 C 22.055 243.867,22.015 243.867,22.034 244.400 M376.667 247.067 C 376.520 247.213,376.411 247.708,376.425 248.167 C 376.449 248.933,376.482 248.923,376.834 248.042 C 377.226 247.063,377.144 246.589,376.667 247.067 M132.996 249.400 C 136.239 253.906,142.099 260.213,146.200 263.612 C 146.860 264.158,145.558 262.837,143.306 260.675 C 141.054 258.514,137.748 254.912,135.959 252.672 C 132.428 248.252,131.170 246.863,132.996 249.400 M265.583 250.900 C 264.840 251.835,264.548 252.346,264.935 252.036 C 265.663 251.451,267.377 249.200,267.094 249.200 C 267.006 249.200,266.326 249.965,265.583 250.900 M375.867 249.867 C 375.720 250.013,375.611 250.508,375.625 250.967 C 375.649 251.733,375.682 251.723,376.034 250.842 C 376.426 249.863,376.344 249.389,375.867 249.867 M375.067 252.667 C 374.920 252.813,374.811 253.308,374.825 253.767 C 374.849 254.533,374.882 254.523,375.234 253.642 C 375.626 252.663,375.544 252.189,375.067 252.667 M24.657 253.900 C 24.978 255.192,25.962 257.546,25.984 257.075 C 26.008 256.589,24.733 252.800,24.546 252.800 C 24.457 252.800,24.507 253.295,24.657 253.900 M258.192 259.279 C 255.997 261.522,255.010 262.647,256.000 261.779 C 257.915 260.099,262.650 255.200,262.359 255.200 C 262.263 255.200,260.388 257.035,258.192 259.279 M373.467 257.467 C 373.320 257.613,373.211 258.108,373.225 258.567 C 373.249 259.333,373.282 259.323,373.634 258.442 C 374.026 257.463,373.944 256.989,373.467 257.467 M372.667 259.867 C 372.520 260.013,372.411 260.508,372.425 260.967 C 372.449 261.733,372.482 261.723,372.834 260.842 C 373.226 259.863,373.144 259.389,372.667 259.867 M371.773 262.643 C 371.638 263.059,371.381 263.760,371.202 264.200 C 371.023 264.640,370.290 266.530,369.574 268.400 C 368.857 270.270,368.149 271.980,367.999 272.200 C 367.566 272.837,366.388 276.000,366.585 276.000 C 367.025 276.000,372.540 262.406,372.227 262.093 C 372.112 261.979,371.908 262.226,371.773 262.643 M252.678 264.213 C 252.060 264.756,251.714 265.200,251.908 265.200 C 252.102 265.200,252.683 264.750,253.200 264.200 C 254.395 262.928,254.131 262.934,252.678 264.213 M148.344 265.326 C 148.933 266.043,152.800 268.908,152.800 268.628 C 152.800 268.534,151.675 267.604,150.300 266.560 C 148.925 265.517,148.045 264.962,148.344 265.326 M28.825 265.447 C 28.793 266.021,30.422 270.075,30.896 270.600 C 31.095 270.820,30.866 270.010,30.387 268.800 C 28.995 265.281,28.852 264.975,28.825 265.447 M249.600 266.849 C 248.206 268.071,248.205 268.072,249.488 267.219 C 250.196 266.748,250.882 266.191,251.012 265.981 C 251.397 265.357,251.077 265.554,249.600 266.849 M156.400 271.167 C 157.363 271.952,158.000 272.208,158.000 271.810 C 158.000 271.706,157.415 271.335,156.700 270.986 L 155.400 270.352 156.400 271.167 M239.100 273.429 C 237.605 274.240,237.696 274.578,239.200 273.800 C 239.860 273.459,240.400 273.094,240.400 272.990 C 240.400 272.732,240.357 272.747,239.100 273.429 M32.034 273.400 C 32.034 273.620,32.378 274.430,32.800 275.200 C 33.222 275.970,33.566 276.420,33.566 276.200 C 33.566 275.980,33.222 275.170,32.800 274.400 C 32.378 273.630,32.034 273.180,32.034 273.400 M161.200 273.796 C 161.200 274.070,163.649 275.284,163.832 275.101 C 163.919 275.014,163.362 274.644,162.595 274.278 C 161.828 273.912,161.200 273.695,161.200 273.796 M365.059 278.659 C 364.456 279.889,364.031 280.964,364.115 281.049 C 364.200 281.133,364.762 280.195,365.365 278.965 C 365.967 277.734,366.392 276.658,366.308 276.575 C 366.224 276.491,365.662 277.429,365.059 278.659 M168.200 277.104 C 168.725 277.578,172.779 279.207,173.353 279.175 C 173.825 279.148,173.519 279.005,170.000 277.613 C 168.790 277.134,167.980 276.905,168.200 277.104 M228.000 278.400 C 227.010 278.815,226.470 279.152,226.800 279.148 C 227.472 279.140,230.828 277.663,230.200 277.652 C 229.980 277.648,228.990 277.985,228.000 278.400 M34.400 278.543 C 34.400 278.978,37.187 284.400,37.410 284.400 C 37.520 284.400,36.957 283.095,36.158 281.500 C 34.660 278.507,34.400 278.070,34.400 278.543 M224.056 279.659 C 223.317 279.872,222.787 280.120,222.879 280.212 C 223.081 280.414,226.000 279.637,226.000 279.381 C 226.000 279.146,225.682 279.191,224.056 279.659 M178.400 280.800 C 179.768 281.238,180.819 281.238,179.800 280.800 C 179.360 280.611,178.640 280.462,178.200 280.468 C 177.557 280.477,177.596 280.543,178.400 280.800 M220.400 280.818 C 219.962 281.115,220.124 281.152,221.000 280.956 C 222.471 280.627,222.790 280.398,221.767 280.406 C 221.345 280.409,220.730 280.595,220.400 280.818 M182.000 281.600 C 183.368 282.038,184.419 282.038,183.400 281.600 C 182.960 281.411,182.240 281.262,181.800 281.268 C 181.157 281.277,181.196 281.343,182.000 281.600 M216.600 281.619 C 216.042 281.871,216.285 281.907,217.400 281.738 C 218.280 281.604,219.075 281.428,219.167 281.347 C 219.510 281.044,217.368 281.271,216.600 281.619 M362.981 282.837 C 362.629 283.518,362.412 284.145,362.499 284.232 C 362.586 284.319,362.956 283.762,363.322 282.995 C 364.144 281.270,363.859 281.138,362.981 282.837 M185.800 282.400 C 186.460 282.568,187.450 282.705,188.000 282.705 C 188.892 282.705,188.870 282.672,187.800 282.400 C 187.140 282.232,186.150 282.095,185.600 282.095 C 184.708 282.095,184.730 282.128,185.800 282.400 M212.400 282.420 C 211.726 282.649,212.051 282.684,213.400 282.528 C 214.500 282.401,215.475 282.231,215.567 282.149 C 215.882 281.868,213.399 282.080,212.400 282.420 M190.500 283.087 C 191.105 283.178,192.095 283.178,192.700 283.087 C 193.305 282.995,192.810 282.920,191.600 282.920 C 190.390 282.920,189.895 282.995,190.500 283.087 M207.705 283.087 C 208.314 283.179,209.214 283.177,209.705 283.082 C 210.197 282.987,209.700 282.911,208.600 282.914 C 207.500 282.917,207.097 282.995,207.705 283.087 M196.900 283.497 C 198.605 283.572,201.395 283.572,203.100 283.497 C 204.805 283.422,203.410 283.361,200.000 283.361 C 196.590 283.361,195.195 283.422,196.900 283.497 M360.504 287.474 C 359.801 288.988,360.210 289.128,360.981 287.637 C 361.333 286.957,361.481 286.401,361.310 286.403 C 361.140 286.405,360.777 286.887,360.504 287.474 M39.786 289.100 C 40.135 289.815,40.506 290.400,40.610 290.400 C 41.008 290.400,40.752 289.763,39.967 288.800 L 39.152 287.800 39.786 289.100 M359.014 290.235 C 358.641 290.804,358.427 291.361,358.539 291.472 C 358.650 291.583,359.029 291.118,359.381 290.437 C 360.159 288.933,359.944 288.815,359.014 290.235 M41.160 291.400 C 41.834 292.705,42.388 293.428,42.385 293.000 C 42.383 292.780,42.014 292.150,41.564 291.600 C 41.021 290.936,40.885 290.869,41.160 291.400 M356.821 294.006 C 356.283 295.103,355.698 296.000,355.521 296.000 C 355.345 296.000,355.200 296.192,355.200 296.427 C 355.200 296.770,351.404 302.512,348.000 307.319 C 347.598 307.887,347.570 308.062,347.916 307.849 C 348.997 307.187,358.779 291.993,358.117 292.006 C 357.943 292.010,357.360 292.910,356.821 294.006 M43.422 295.200 C 52.062 310.455,69.634 330.372,85.800 343.234 C 93.682 349.505,108.013 359.115,107.994 358.117 C 107.990 357.943,107.090 357.360,105.994 356.821 C 104.897 356.283,104.000 355.698,104.000 355.521 C 104.000 355.345,103.801 355.200,103.559 355.200 C 103.100 355.200,92.225 347.882,91.280 346.938 C 90.985 346.642,90.619 346.400,90.467 346.400 C 90.316 346.400,89.743 345.995,89.195 345.500 C 88.647 345.005,87.209 343.843,85.999 342.917 C 84.790 341.991,83.080 340.588,82.200 339.799 C 81.320 339.010,79.790 337.703,78.800 336.895 C 76.284 334.842,65.051 323.536,62.411 320.400 C 61.208 318.970,59.946 317.530,59.608 317.200 C 59.270 316.870,58.185 315.524,57.197 314.209 C 56.208 312.894,55.047 311.403,54.615 310.894 C 53.616 309.718,51.203 306.276,47.121 300.200 C 44.227 295.892,42.467 293.513,43.422 295.200 M346.105 309.838 C 345.612 310.610,345.379 311.137,345.586 311.009 C 346.184 310.639,347.689 308.398,347.327 308.417 C 347.147 308.426,346.597 309.066,346.105 309.838 M344.093 312.400 C 343.818 312.840,343.731 313.200,343.900 313.200 C 344.069 313.200,344.432 312.840,344.707 312.400 C 344.982 311.960,345.069 311.600,344.900 311.600 C 344.731 311.600,344.368 311.960,344.093 312.400 M341.937 315.247 C 341.202 316.153,340.418 317.098,340.197 317.347 C 339.975 317.596,338.625 319.150,337.198 320.800 C 332.401 326.346,323.719 334.801,316.809 340.655 C 314.152 342.906,313.449 343.647,315.200 342.352 C 318.147 340.171,326.710 332.373,331.027 327.938 C 336.488 322.328,344.071 313.600,343.485 313.600 C 343.370 313.600,342.673 314.341,341.937 315.247 M312.229 344.229 C 311.805 344.538,311.536 344.869,311.630 344.963 C 311.724 345.057,312.148 344.881,312.571 344.571 C 312.995 344.262,313.264 343.931,313.170 343.837 C 313.076 343.743,312.652 343.919,312.229 344.229 M309.600 346.449 C 308.206 347.671,308.205 347.672,309.488 346.819 C 310.196 346.348,310.882 345.791,311.012 345.581 C 311.397 344.957,311.077 345.154,309.600 346.449 M305.958 348.932 C 303.058 351.129,296.861 355.200,296.415 355.200 C 296.187 355.200,296.000 355.345,296.000 355.521 C 296.000 355.698,295.103 356.283,294.006 356.821 C 292.910 357.360,292.010 357.943,292.006 358.117 C 291.994 358.737,307.164 349.029,307.790 348.016 C 308.216 347.327,307.803 347.534,305.958 348.932 M108.400 358.590 C 108.400 358.694,108.985 359.065,109.700 359.414 L 111.000 360.048 110.000 359.233 C 109.037 358.448,108.400 358.192,108.400 358.590 M290.000 359.233 L 289.000 360.048 290.300 359.414 C 291.015 359.065,291.600 358.694,291.600 358.590 C 291.600 358.192,290.963 358.448,290.000 359.233 M111.200 360.190 C 111.200 360.294,111.785 360.665,112.500 361.014 L 113.800 361.648 112.800 360.833 C 111.837 360.048,111.200 359.792,111.200 360.190 M287.200 360.833 L 286.200 361.648 287.500 361.014 C 288.215 360.665,288.800 360.294,288.800 360.190 C 288.800 359.792,288.163 360.048,287.200 360.833 M115.633 362.549 C 116.045 362.917,118.400 364.000,118.400 363.821 C 118.400 363.590,116.182 362.400,115.753 362.400 C 115.596 362.400,115.542 362.467,115.633 362.549 M118.800 364.188 C 118.800 364.411,123.093 366.409,123.512 366.381 C 123.854 366.359,119.536 364.046,119.100 364.019 C 118.935 364.008,118.800 364.085,118.800 364.188 M277.000 365.822 C 275.020 366.787,271.510 368.319,269.200 369.226 C 266.890 370.133,264.640 371.022,264.200 371.201 C 263.760 371.381,263.059 371.638,262.643 371.773 C 262.226 371.908,261.979 372.112,262.093 372.227 C 262.299 372.432,270.755 369.176,274.600 367.410 C 275.700 366.905,277.635 366.016,278.900 365.434 C 280.165 364.852,281.200 364.292,281.200 364.188 C 281.200 363.834,280.596 364.069,277.000 365.822 M124.000 366.590 C 124.000 366.855,126.506 367.964,132.841 370.503 C 138.845 372.909,140.610 373.463,140.210 372.816 C 140.068 372.587,139.601 372.400,139.171 372.400 C 138.741 372.400,138.077 372.241,137.695 372.047 C 136.791 371.587,135.722 371.153,131.600 369.573 C 129.730 368.856,127.351 367.849,126.313 367.335 C 124.386 366.380,124.000 366.256,124.000 366.590 M141.400 373.600 C 142.501 374.073,142.892 374.073,142.600 373.600 C 142.464 373.380,141.958 373.213,141.476 373.228 C 140.631 373.255,140.629 373.269,141.400 373.600 M143.800 374.400 C 144.901 374.873,145.292 374.873,145.000 374.400 C 144.864 374.180,144.358 374.013,143.876 374.028 C 143.031 374.055,143.029 374.069,143.800 374.400 M146.200 375.200 C 147.301 375.673,147.692 375.673,147.400 375.200 C 147.264 374.980,146.758 374.813,146.276 374.828 C 145.431 374.855,145.429 374.869,146.200 375.200 M252.600 375.200 C 252.308 375.673,252.699 375.673,253.800 375.200 C 254.571 374.869,254.569 374.855,253.724 374.828 C 253.242 374.813,252.736 374.980,252.600 375.200 M149.000 376.000 C 150.101 376.473,150.492 376.473,150.200 376.000 C 150.064 375.780,149.558 375.613,149.076 375.628 C 148.231 375.655,148.229 375.669,149.000 376.000 M249.800 376.000 C 249.508 376.473,249.899 376.473,251.000 376.000 C 251.771 375.669,251.769 375.655,250.924 375.628 C 250.442 375.613,249.936 375.780,249.800 376.000 M151.800 376.800 C 152.901 377.273,153.292 377.273,153.000 376.800 C 152.864 376.580,152.358 376.413,151.876 376.428 C 151.031 376.455,151.029 376.469,151.800 376.800 M247.000 376.800 C 246.685 377.309,247.612 377.309,248.400 376.800 C 248.888 376.485,248.836 376.411,248.124 376.406 C 247.642 376.403,247.136 376.580,247.000 376.800 M154.600 377.600 C 155.711 378.078,156.495 378.078,156.200 377.600 C 156.064 377.380,155.468 377.213,154.876 377.228 C 153.915 377.253,153.886 377.293,154.600 377.600 M243.800 377.600 C 243.505 378.078,244.289 378.078,245.400 377.600 C 246.114 377.293,246.085 377.253,245.124 377.228 C 244.532 377.213,243.936 377.380,243.800 377.600 M158.200 378.400 C 159.396 378.914,160.395 378.914,159.600 378.400 C 159.270 378.187,158.640 378.022,158.200 378.034 L 157.400 378.056 158.200 378.400 M240.400 378.400 C 239.613 378.909,241.016 378.909,242.200 378.400 C 242.933 378.085,242.916 378.054,242.000 378.034 C 241.450 378.022,240.730 378.187,240.400 378.400 M161.600 379.200 C 162.968 379.638,164.019 379.638,163.000 379.200 C 162.560 379.011,161.840 378.862,161.400 378.868 C 160.757 378.877,160.796 378.943,161.600 379.200 M237.000 379.200 C 235.981 379.638,237.032 379.638,238.400 379.200 C 239.204 378.943,239.243 378.877,238.600 378.868 C 238.160 378.862,237.440 379.011,237.000 379.200 M165.600 380.000 C 167.130 380.490,168.358 380.490,167.600 380.000 C 167.270 379.787,166.460 379.627,165.800 379.646 C 164.624 379.679,164.620 379.686,165.600 380.000 M232.600 380.000 L 231.800 380.344 232.600 380.332 C 233.040 380.326,233.850 380.176,234.400 380.000 L 235.400 379.680 234.400 379.668 C 233.850 379.662,233.040 379.811,232.600 380.000 M170.000 380.800 C 170.550 380.976,171.360 381.126,171.800 381.132 L 172.600 381.144 171.800 380.800 C 171.360 380.611,170.550 380.462,170.000 380.468 L 169.000 380.480 170.000 380.800 M228.200 380.800 L 227.400 381.144 228.200 381.132 C 228.640 381.126,229.450 380.976,230.000 380.800 L 231.000 380.480 230.000 380.468 C 229.450 380.462,228.640 380.611,228.200 380.800 M175.800 381.600 C 176.460 381.768,177.720 381.904,178.600 381.903 L 180.200 381.900 178.400 381.580 C 175.957 381.145,174.070 381.160,175.800 381.600 M221.600 381.600 L 219.800 381.880 221.800 381.900 C 222.900 381.911,224.250 381.776,224.800 381.600 C 226.125 381.176,224.330 381.176,221.600 381.600 M182.200 382.403 C 183.760 382.745,189.499 382.948,189.167 382.650 C 189.075 382.568,187.110 382.400,184.800 382.276 C 181.940 382.124,181.111 382.165,182.200 382.403 M213.200 382.400 L 210.200 382.656 213.200 382.705 C 214.850 382.732,216.920 382.605,217.800 382.423 L 219.400 382.092 217.800 382.118 C 216.920 382.132,214.850 382.259,213.200 382.400 M195.100 383.099 C 197.795 383.168,202.205 383.168,204.900 383.099 C 207.595 383.030,205.390 382.973,200.000 382.973 C 194.610 382.973,192.405 383.030,195.100 383.099 " stroke="none" fill="#aaafb1" fill-rule="evenodd"></path><path id="path4" d="M70.181 70.500 L 68.600 72.200 70.300 70.619 C 71.235 69.749,72.000 68.984,72.000 68.919 C 72.000 68.616,71.652 68.919,70.181 70.500 M63.375 77.700 L 62.200 79.000 63.500 77.825 C 64.712 76.730,64.984 76.400,64.675 76.400 C 64.606 76.400,64.021 76.985,63.375 77.700 M194.623 166.747 C 193.975 166.886,196.395 167.000,200.000 167.000 C 203.605 167.000,206.025 166.886,205.377 166.747 C 204.730 166.608,202.310 166.495,200.000 166.495 C 197.690 166.495,195.270 166.608,194.623 166.747 M191.000 167.600 C 190.496 167.817,190.422 167.944,190.800 167.944 C 191.130 167.944,191.760 167.789,192.200 167.600 C 192.704 167.383,192.778 167.256,192.400 167.256 C 192.070 167.256,191.440 167.411,191.000 167.600 M207.800 167.600 C 208.240 167.789,208.870 167.944,209.200 167.944 C 209.578 167.944,209.504 167.817,209.000 167.600 C 208.560 167.411,207.930 167.256,207.600 167.256 C 207.222 167.256,207.296 167.383,207.800 167.600 M184.600 170.116 C 178.179 173.590,173.247 178.463,170.248 184.300 C 169.079 186.573,169.837 185.700,171.447 182.917 C 174.320 177.952,179.254 173.359,184.977 170.320 C 186.530 169.496,187.620 168.820,187.400 168.820 C 187.180 168.819,185.920 169.402,184.600 170.116 M214.954 170.094 C 215.368 170.372,216.988 171.426,218.554 172.435 C 222.058 174.695,226.484 179.333,228.553 182.913 C 230.162 185.698,230.923 186.577,229.752 184.300 C 226.865 178.682,220.906 172.767,215.600 170.252 C 214.830 169.887,214.539 169.816,214.954 170.094 M17.693 180.800 C 17.693 181.570,17.775 181.885,17.876 181.500 C 17.976 181.115,17.976 180.485,17.876 180.100 C 17.775 179.715,17.693 180.030,17.693 180.800 M231.227 188.200 C 231.225 188.420,231.577 189.590,232.010 190.800 C 232.518 192.220,232.711 192.517,232.553 191.638 C 232.304 190.246,231.235 187.476,231.227 188.200 M167.429 191.429 C 167.281 192.015,167.238 192.572,167.332 192.666 C 167.427 192.760,167.624 192.358,167.771 191.771 C 167.919 191.185,167.962 190.628,167.868 190.534 C 167.773 190.440,167.576 190.842,167.429 191.429 M166.654 195.056 C 166.327 197.445,166.366 203.351,166.723 205.358 C 166.875 206.216,167.000 203.833,167.000 200.058 C 167.000 192.398,167.006 192.488,166.654 195.056 M233.000 200.000 C 233.000 203.938,233.118 206.213,233.270 205.200 C 233.419 204.210,233.541 201.870,233.541 200.000 C 233.541 198.130,233.419 195.790,233.270 194.800 C 233.118 193.787,233.000 196.062,233.000 200.000 M16.406 199.100 C 16.411 199.635,16.492 199.675,16.750 199.267 C 16.991 198.888,17.651 198.798,19.044 198.957 C 20.430 199.116,20.708 199.079,20.000 198.830 C 18.170 198.189,16.399 198.322,16.406 199.100 M381.400 198.811 C 380.727 199.118,380.790 199.161,381.800 199.088 L 383.000 199.000 382.960 206.400 C 382.924 212.918,382.961 213.371,383.266 210.200 C 383.457 208.220,383.565 204.802,383.506 202.605 C 383.393 198.363,383.190 197.996,381.400 198.811 M22.000 199.580 C 22.999 199.920,25.482 200.132,25.167 199.851 C 25.075 199.769,24.100 199.599,23.000 199.472 C 21.651 199.316,21.326 199.351,22.000 199.580 M377.400 199.600 C 376.381 200.038,377.432 200.038,378.800 199.600 C 379.604 199.343,379.643 199.277,379.000 199.268 C 378.560 199.262,377.840 199.411,377.400 199.600 M26.800 200.362 C 27.730 200.690,29.622 201.021,36.198 202.009 C 37.629 202.224,39.925 202.573,41.300 202.784 C 45.128 203.371,48.784 203.624,47.600 203.221 C 47.050 203.033,45.825 202.862,44.877 202.840 C 43.930 202.818,42.400 202.635,41.477 202.434 C 40.555 202.233,38.270 201.862,36.400 201.609 C 34.530 201.357,32.190 200.990,31.200 200.794 C 28.240 200.207,25.633 199.951,26.800 200.362 M373.000 200.400 L 372.200 200.744 373.000 200.732 C 373.440 200.726,374.250 200.576,374.800 200.400 L 375.800 200.080 374.800 200.068 C 374.250 200.062,373.440 200.211,373.000 200.400 M368.400 201.200 C 367.608 201.454,367.567 201.520,368.200 201.520 C 368.640 201.520,369.450 201.376,370.000 201.200 C 370.792 200.946,370.833 200.880,370.200 200.880 C 369.760 200.880,368.950 201.024,368.400 201.200 M363.200 202.000 C 361.850 202.284,361.843 202.295,363.000 202.300 C 363.660 202.303,364.740 202.168,365.400 202.000 C 367.060 201.578,365.207 201.578,363.200 202.000 M357.600 202.800 C 356.243 203.086,356.237 203.095,357.400 203.107 C 358.060 203.115,359.050 202.976,359.600 202.800 C 360.912 202.380,359.596 202.380,357.600 202.800 M351.400 203.600 L 349.800 203.886 351.200 203.896 C 351.970 203.901,353.140 203.768,353.800 203.600 C 355.428 203.186,353.713 203.186,351.400 203.600 M48.833 203.746 C 48.925 203.826,50.440 203.992,52.200 204.113 C 54.498 204.271,54.949 204.237,53.800 203.990 C 52.210 203.648,48.515 203.467,48.833 203.746 M16.630 210.200 C 16.832 217.247,17.293 221.599,18.854 231.200 C 19.488 235.100,19.623 235.711,19.811 235.523 C 19.905 235.428,19.796 234.282,19.568 232.975 C 19.124 230.432,18.660 227.324,17.960 222.200 C 17.720 220.440,17.281 215.580,16.985 211.400 L 16.447 203.800 16.630 210.200 M343.800 204.400 L 341.400 204.666 343.600 204.685 C 344.810 204.696,346.340 204.568,347.000 204.400 C 348.538 204.009,347.337 204.009,343.800 204.400 M55.633 204.544 C 55.725 204.624,57.420 204.785,59.400 204.902 C 61.416 205.021,62.472 204.979,61.800 204.805 C 60.600 204.495,55.319 204.272,55.633 204.544 M63.633 205.347 C 63.725 205.429,65.600 205.595,67.800 205.717 C 70.522 205.869,71.289 205.829,70.200 205.593 C 68.637 205.254,63.303 205.055,63.633 205.347 M334.500 205.487 C 335.105 205.578,336.095 205.578,336.700 205.487 C 337.305 205.395,336.810 205.320,335.600 205.320 C 334.390 205.320,333.895 205.395,334.500 205.487 M330.305 205.883 C 330.802 205.979,331.522 205.975,331.905 205.875 C 332.287 205.775,331.880 205.696,331.000 205.701 C 330.120 205.705,329.807 205.787,330.305 205.883 M72.433 206.145 C 72.525 206.224,74.760 206.381,77.400 206.494 C 80.366 206.620,81.589 206.574,80.600 206.372 C 79.033 206.053,72.105 205.860,72.433 206.145 M324.500 206.291 C 325.325 206.378,326.675 206.378,327.500 206.291 C 328.325 206.205,327.650 206.134,326.000 206.134 C 324.350 206.134,323.675 206.205,324.500 206.291 M319.505 206.683 C 320.002 206.779,320.722 206.775,321.105 206.675 C 321.487 206.575,321.080 206.496,320.200 206.501 C 319.320 206.505,319.007 206.587,319.505 206.683 M84.833 206.946 C 84.925 207.026,87.880 207.186,91.400 207.302 C 95.231 207.429,96.997 207.385,95.800 207.192 C 93.822 206.874,84.512 206.665,84.833 206.946 M310.915 207.096 C 312.188 207.176,314.168 207.175,315.315 207.094 C 316.462 207.014,315.420 206.949,313.000 206.950 C 310.580 206.951,309.642 207.016,310.915 207.096 M167.268 207.600 C 167.288 208.639,167.918 210.346,167.932 209.400 C 167.938 208.960,167.789 208.240,167.600 207.800 C 167.389 207.310,167.261 207.232,167.268 207.600 M231.867 209.467 C 231.487 210.700,231.246 211.779,231.330 211.864 C 231.415 211.949,231.801 211.014,232.187 209.787 C 232.573 208.559,232.814 207.481,232.723 207.390 C 232.632 207.298,232.246 208.233,231.867 209.467 M304.707 207.490 C 305.426 207.579,306.506 207.577,307.107 207.486 C 307.708 207.395,307.120 207.322,305.800 207.324 C 304.480 207.326,303.988 207.401,304.707 207.490 M109.000 208.005 C 118.407 208.269,117.589 208.166,117.632 209.100 C 117.651 209.540,117.740 209.609,117.869 209.287 C 118.470 207.791,117.379 207.597,108.851 207.684 L 100.600 207.768 109.000 208.005 M288.922 207.899 C 291.299 207.970,295.079 207.969,297.322 207.898 C 299.565 207.827,297.620 207.769,293.000 207.769 C 288.380 207.770,286.545 207.828,288.922 207.899 M282.267 208.267 C 282.120 208.413,282.021 208.998,282.046 209.567 C 282.084 210.398,282.131 210.444,282.289 209.800 C 282.398 209.360,282.669 208.775,282.892 208.500 C 283.314 207.980,282.760 207.774,282.267 208.267 M118.040 211.633 C 118.062 212.385,118.230 213.450,118.413 214.000 C 118.629 214.646,118.666 214.220,118.519 212.800 C 118.259 210.283,117.981 209.607,118.040 211.633 M229.837 214.711 C 227.211 220.085,222.063 225.671,217.083 228.553 C 214.300 230.163,213.427 230.921,215.700 229.752 C 219.934 227.577,224.874 223.193,227.592 219.200 C 229.229 216.794,231.342 212.808,231.105 212.571 C 231.023 212.489,230.452 213.452,229.837 214.711 M281.400 213.600 C 281.248 214.291,281.207 214.941,281.309 215.042 C 281.411 215.144,281.609 214.653,281.750 213.950 C 281.891 213.247,281.931 212.598,281.841 212.508 C 281.750 212.417,281.552 212.909,281.400 213.600 M170.248 215.700 C 171.949 219.010,174.956 222.791,177.805 225.200 C 178.455 225.750,177.640 224.756,175.994 222.990 C 174.347 221.225,172.301 218.570,171.447 217.090 C 169.839 214.304,169.075 213.419,170.248 215.700 M118.868 216.600 C 118.862 217.040,119.011 217.760,119.200 218.200 C 119.638 219.219,119.638 218.168,119.200 216.800 C 118.943 215.996,118.877 215.957,118.868 216.600 M382.229 218.829 C 382.076 220.179,382.033 221.366,382.133 221.467 C 382.234 221.567,382.444 220.547,382.600 219.200 C 382.756 217.853,382.799 216.666,382.695 216.562 C 382.591 216.458,382.381 217.478,382.229 218.829 M280.629 217.829 C 280.481 218.415,280.438 218.972,280.532 219.066 C 280.627 219.160,280.824 218.758,280.971 218.171 C 281.119 217.585,281.162 217.028,281.068 216.934 C 280.973 216.840,280.776 217.242,280.629 217.829 M119.656 220.000 C 119.656 220.330,119.811 220.960,120.000 221.400 C 120.217 221.904,120.344 221.978,120.344 221.600 C 120.344 221.270,120.189 220.640,120.000 220.200 C 119.783 219.696,119.656 219.622,119.656 220.000 M120.412 223.200 C 120.412 223.530,120.587 224.070,120.800 224.400 C 121.145 224.933,121.188 224.933,121.188 224.400 C 121.188 224.070,121.013 223.530,120.800 223.200 C 120.455 222.667,120.412 222.667,120.412 223.200 M381.400 225.200 C 381.245 226.328,381.202 227.336,381.306 227.439 C 381.409 227.542,381.616 226.700,381.767 225.567 C 381.917 224.434,381.959 223.426,381.861 223.328 C 381.763 223.229,381.555 224.072,381.400 225.200 M179.203 226.280 C 179.210 226.865,186.556 231.220,187.484 231.189 C 187.658 231.184,186.500 230.489,184.911 229.645 C 183.322 228.802,181.387 227.627,180.611 227.035 C 179.835 226.444,179.202 226.103,179.203 226.280 M189.038 231.770 C 189.719 232.067,190.889 232.419,191.638 232.553 C 192.517 232.711,192.220 232.518,190.800 232.010 C 188.295 231.113,187.181 230.962,189.038 231.770 M209.000 232.045 C 207.474 232.613,207.323 232.732,208.362 232.549 C 209.853 232.287,212.567 231.210,211.600 231.266 C 211.270 231.284,210.100 231.635,209.000 232.045 M194.800 233.270 C 195.790 233.419,198.130 233.541,200.000 233.541 C 201.870 233.541,204.210 233.419,205.200 233.270 C 206.213 233.118,203.938 233.000,200.000 233.000 C 196.062 233.000,193.787 233.118,194.800 233.270 M379.856 234.484 C 379.721 234.988,379.628 235.850,379.649 236.400 C 379.672 236.989,379.831 236.671,380.036 235.625 C 380.403 233.752,380.273 232.927,379.856 234.484 M20.006 237.033 C 20.009 237.675,20.196 238.470,20.421 238.800 C 20.714 239.230,20.754 238.946,20.562 237.800 C 20.230 235.816,19.998 235.496,20.006 237.033 M20.806 240.633 C 20.809 241.275,20.996 242.070,21.221 242.400 C 21.514 242.830,21.554 242.546,21.362 241.400 C 21.030 239.416,20.798 239.096,20.806 240.633 M128.655 242.300 C 130.192 244.981,133.344 249.546,134.801 251.200 C 135.479 251.970,134.941 251.092,133.605 249.249 C 132.269 247.406,130.453 244.661,129.570 243.149 C 128.687 241.637,127.875 240.400,127.765 240.400 C 127.656 240.400,128.056 241.255,128.655 242.300 M377.657 244.657 C 377.374 245.877,377.216 246.949,377.306 247.040 C 377.397 247.130,377.709 246.212,378.000 245.000 C 378.291 243.788,378.449 242.715,378.351 242.617 C 378.253 242.520,377.941 243.437,377.657 244.657 M21.600 244.310 C 21.600 244.993,21.777 245.662,21.994 245.796 C 22.240 245.948,22.294 245.545,22.137 244.720 C 21.800 242.951,21.600 242.799,21.600 244.310 M22.400 247.310 C 22.400 247.883,22.587 248.468,22.816 248.610 C 23.089 248.779,23.138 248.477,22.960 247.734 C 22.592 246.201,22.400 246.056,22.400 247.310 M265.060 251.100 C 263.580 253.025,263.095 253.790,263.985 252.800 C 265.638 250.959,268.168 247.600,267.901 247.600 C 267.820 247.600,266.541 249.175,265.060 251.100 M376.446 249.267 C 376.421 249.634,376.296 250.264,376.170 250.667 C 375.952 251.362,375.963 251.363,376.397 250.687 C 376.648 250.296,376.773 249.666,376.673 249.287 C 376.511 248.668,376.488 248.666,376.446 249.267 M23.200 250.110 C 23.200 250.683,23.387 251.268,23.616 251.410 C 23.889 251.579,23.938 251.277,23.760 250.534 C 23.392 249.001,23.200 248.856,23.200 250.110 M375.646 252.067 C 375.621 252.434,375.496 253.064,375.370 253.467 C 375.152 254.162,375.163 254.163,375.597 253.487 C 375.848 253.096,375.973 252.466,375.873 252.087 C 375.711 251.468,375.688 251.466,375.646 252.067 M24.000 252.910 C 24.000 253.483,24.187 254.068,24.416 254.210 C 24.689 254.379,24.738 254.077,24.560 253.334 C 24.192 251.801,24.000 251.656,24.000 252.910 M137.916 255.100 C 139.013 256.365,140.328 257.760,140.839 258.200 C 141.350 258.640,140.530 257.605,139.016 255.900 C 137.503 254.195,136.188 252.800,136.093 252.800 C 135.998 252.800,136.818 253.835,137.916 255.100 M260.975 256.100 L 259.800 257.400 261.100 256.225 C 261.815 255.579,262.400 254.994,262.400 254.925 C 262.400 254.616,262.070 254.888,260.975 256.100 M143.400 260.800 C 144.259 261.680,145.052 262.400,145.162 262.400 C 145.272 262.400,144.659 261.680,143.800 260.800 C 142.941 259.920,142.148 259.200,142.038 259.200 C 141.928 259.200,142.541 259.920,143.400 260.800 M255.468 261.446 C 254.625 262.229,254.007 262.940,254.094 263.027 C 254.181 263.114,254.952 262.469,255.807 261.593 C 257.734 259.619,257.529 259.530,255.468 261.446 M146.571 263.497 C 147.215 264.209,147.830 264.704,147.938 264.596 C 148.045 264.488,148.058 264.355,147.967 264.300 C 147.875 264.245,147.260 263.751,146.600 263.201 L 145.400 262.203 146.571 263.497 M148.544 265.109 C 148.860 265.621,151.200 267.353,151.200 267.075 C 151.200 266.976,150.539 266.391,149.732 265.775 C 148.924 265.159,148.389 264.859,148.544 265.109 M249.331 266.554 C 246.604 268.723,246.151 269.259,248.400 267.655 C 251.292 265.594,251.752 265.217,251.571 265.059 C 251.477 264.976,250.469 265.649,249.331 266.554 M152.670 268.264 C 153.368 268.889,154.538 269.741,155.270 270.157 C 157.058 271.174,156.292 270.475,153.600 268.634 C 151.965 267.515,151.726 267.420,152.670 268.264 M244.059 270.185 C 241.411 271.872,240.859 272.423,243.000 271.243 C 244.616 270.351,246.769 268.817,246.400 268.819 C 246.290 268.820,245.236 269.435,244.059 270.185 M158.086 271.800 C 158.895 272.350,159.699 272.800,159.872 272.800 C 160.044 272.800,159.523 272.350,158.714 271.800 C 157.905 271.250,157.101 270.800,156.928 270.800 C 156.756 270.800,157.277 271.250,158.086 271.800 M33.003 276.400 C 33.423 277.870,39.586 289.736,40.506 290.848 L 41.295 291.800 40.565 290.600 C 40.163 289.940,38.233 286.250,36.276 282.400 C 34.318 278.550,32.845 275.850,33.003 276.400 M363.600 282.400 C 362.715 284.160,362.081 285.600,362.191 285.600 C 362.301 285.600,363.115 284.160,364.000 282.400 C 364.885 280.640,365.519 279.200,365.409 279.200 C 365.299 279.200,364.485 280.640,363.600 282.400 M176.800 280.000 C 177.130 280.213,177.670 280.388,178.000 280.388 C 178.533 280.388,178.533 280.345,178.000 280.000 C 177.670 279.787,177.130 279.612,176.800 279.612 C 176.267 279.612,176.267 279.655,176.800 280.000 M219.200 280.800 C 218.667 281.145,218.667 281.188,219.200 281.188 C 219.530 281.188,220.070 281.013,220.400 280.800 C 220.933 280.455,220.933 280.412,220.400 280.412 C 220.070 280.412,219.530 280.587,219.200 280.800 M183.400 281.600 C 183.840 281.789,184.470 281.944,184.800 281.944 C 185.178 281.944,185.104 281.817,184.600 281.600 C 184.160 281.411,183.530 281.256,183.200 281.256 C 182.822 281.256,182.896 281.383,183.400 281.600 M215.400 281.600 C 214.896 281.817,214.822 281.944,215.200 281.944 C 215.530 281.944,216.160 281.789,216.600 281.600 C 217.104 281.383,217.178 281.256,216.800 281.256 C 216.470 281.256,215.840 281.411,215.400 281.600 M187.800 282.400 C 188.460 282.568,189.450 282.705,190.000 282.705 C 190.892 282.705,190.870 282.672,189.800 282.400 C 189.140 282.232,188.150 282.095,187.600 282.095 C 186.708 282.095,186.730 282.128,187.800 282.400 M210.400 282.400 L 209.400 282.720 210.400 282.720 C 210.950 282.720,211.850 282.576,212.400 282.400 L 213.400 282.080 212.400 282.080 C 211.850 282.080,210.950 282.224,210.400 282.400 M196.920 283.098 C 198.855 283.172,201.915 283.171,203.720 283.097 C 205.524 283.023,203.940 282.963,200.200 282.964 C 196.460 282.964,194.984 283.025,196.920 283.098 M41.209 292.220 C 41.214 292.429,41.570 293.050,42.000 293.600 C 42.430 294.150,42.786 294.825,42.791 295.100 C 42.796 295.375,42.995 295.600,43.233 295.600 C 43.471 295.600,43.262 294.925,42.769 294.100 C 41.682 292.282,41.197 291.697,41.209 292.220 M43.600 296.235 C 43.600 296.725,52.181 309.064,54.641 312.111 C 56.058 313.865,57.379 315.591,57.578 315.947 C 57.777 316.302,58.032 316.501,58.145 316.388 C 58.258 316.275,57.272 314.837,55.954 313.191 C 52.929 309.417,48.751 303.570,46.028 299.300 C 44.071 296.232,43.600 295.637,43.600 296.235 M348.344 307.500 C 347.193 308.889,346.706 309.600,346.904 309.600 C 347.014 309.600,347.586 308.970,348.173 308.200 C 349.263 306.771,349.395 306.232,348.344 307.500 M345.944 310.700 C 344.793 312.089,344.306 312.800,344.504 312.800 C 344.614 312.800,345.186 312.170,345.773 311.400 C 346.863 309.971,346.995 309.432,345.944 310.700 M60.466 319.190 C 63.157 322.457,63.602 322.932,63.791 322.742 C 63.875 322.658,62.681 321.242,61.138 319.595 L 58.332 316.600 60.466 319.190 M337.813 320.600 C 336.336 322.250,335.279 323.586,335.464 323.570 C 335.810 323.539,340.994 317.600,340.676 317.600 C 340.578 317.600,339.290 318.950,337.813 320.600 M66.611 326.065 C 70.398 329.954,70.649 330.202,74.035 333.397 C 75.666 334.935,74.122 333.270,70.605 329.697 C 67.087 326.124,64.122 323.200,64.015 323.200 C 63.909 323.200,65.077 324.489,66.611 326.065 M329.392 329.700 L 325.400 333.800 329.500 329.808 C 331.755 327.612,333.600 325.767,333.600 325.708 C 333.600 325.418,333.101 325.892,329.392 329.700 M320.400 338.083 L 317.400 340.893 320.400 338.362 C 322.050 336.970,323.475 335.779,323.567 335.716 C 323.658 335.652,323.658 335.526,323.567 335.436 C 323.475 335.346,322.050 336.537,320.400 338.083 M77.200 336.171 C 77.200 337.358,100.752 355.381,101.425 354.709 C 101.525 354.609,99.760 353.299,97.503 351.800 C 91.436 347.767,85.268 343.037,79.900 338.300 C 78.415 336.990,77.200 336.032,77.200 336.171 M310.200 346.247 C 307.128 348.577,305.976 349.740,308.600 347.862 C 310.925 346.198,313.088 344.429,312.800 344.428 C 312.690 344.427,311.520 345.246,310.200 346.247 M301.887 352.168 C 299.506 353.816,299.036 354.293,300.600 353.472 C 301.771 352.857,304.398 350.821,304.000 350.836 C 303.890 350.841,302.939 351.440,301.887 352.168 M104.400 356.543 C 104.400 356.790,109.097 359.600,109.510 359.600 C 109.857 359.600,108.680 358.802,106.300 357.424 C 105.255 356.819,104.400 356.422,104.400 356.543 M294.300 357.029 C 293.695 357.357,293.200 357.710,293.200 357.813 C 293.200 358.199,293.832 357.957,294.800 357.200 C 295.989 356.270,295.811 356.209,294.300 357.029 M291.400 358.800 C 290.740 359.237,290.380 359.592,290.600 359.588 C 291.001 359.582,293.176 358.023,292.800 358.012 C 292.690 358.008,292.060 358.363,291.400 358.800 M110.600 360.239 C 111.547 360.982,119.583 365.057,119.000 364.498 C 118.780 364.287,116.620 363.101,114.200 361.863 C 111.780 360.624,110.160 359.894,110.600 360.239 M284.700 362.426 C 283.435 363.079,282.400 363.703,282.400 363.812 C 282.400 363.922,283.480 363.466,284.800 362.800 C 286.120 362.134,287.200 361.501,287.200 361.394 C 287.200 361.128,287.274 361.097,284.700 362.426 M119.600 364.953 C 119.600 365.248,124.100 367.234,124.304 367.029 C 124.418 366.915,123.991 366.626,123.355 366.387 C 122.720 366.147,121.677 365.692,121.039 365.375 C 119.812 364.768,119.600 364.706,119.600 364.953 M276.800 366.400 C 276.030 366.822,275.580 367.166,275.800 367.166 C 276.020 367.166,276.830 366.822,277.600 366.400 C 278.370 365.978,278.820 365.634,278.600 365.634 C 278.380 365.634,277.570 365.978,276.800 366.400 M141.400 374.000 C 141.536 374.220,142.042 374.387,142.524 374.372 C 143.369 374.345,143.371 374.331,142.600 374.000 C 141.499 373.527,141.108 373.527,141.400 374.000 M257.400 374.000 C 256.629 374.331,256.631 374.345,257.476 374.372 C 257.958 374.387,258.464 374.220,258.600 374.000 C 258.892 373.527,258.501 373.527,257.400 374.000 M146.400 375.582 C 146.730 375.805,147.345 375.991,147.767 375.994 C 148.790 376.002,148.471 375.773,147.000 375.444 C 146.124 375.248,145.962 375.285,146.400 375.582 M252.400 375.600 C 251.576 375.864,251.541 375.926,252.200 375.954 C 252.640 375.973,253.270 375.813,253.600 375.600 C 254.301 375.147,253.814 375.147,252.400 375.600 M149.200 376.382 C 149.530 376.605,150.145 376.791,150.567 376.794 C 151.590 376.802,151.271 376.573,149.800 376.244 C 148.924 376.048,148.762 376.085,149.200 376.382 M249.600 376.400 C 248.776 376.664,248.741 376.726,249.400 376.754 C 249.840 376.773,250.470 376.613,250.800 376.400 C 251.501 375.947,251.014 375.947,249.600 376.400 M152.000 377.182 C 152.330 377.405,152.945 377.591,153.367 377.594 C 154.390 377.602,154.071 377.373,152.600 377.044 C 151.724 376.848,151.562 376.885,152.000 377.182 M155.000 377.972 C 156.166 378.450,159.499 379.204,160.306 379.174 C 161.081 379.144,157.773 378.231,155.600 377.874 C 154.682 377.724,154.475 377.757,155.000 377.972 M161.800 379.559 C 162.240 379.741,163.500 379.998,164.600 380.130 C 165.831 380.278,166.216 380.247,165.600 380.050 C 164.158 379.587,160.822 379.156,161.800 379.559 M234.400 380.000 C 233.056 380.431,234.508 380.431,236.200 380.000 C 237.278 379.726,237.298 379.694,236.400 379.687 C 235.850 379.683,234.950 379.824,234.400 380.000 M166.833 380.549 C 166.925 380.631,167.900 380.801,169.000 380.928 C 170.349 381.084,170.674 381.049,170.000 380.820 C 169.001 380.480,166.518 380.268,166.833 380.549 M230.000 380.820 C 229.326 381.049,229.651 381.084,231.000 380.928 C 232.100 380.801,233.075 380.631,233.167 380.549 C 233.482 380.268,230.999 380.480,230.000 380.820 M173.200 381.620 C 175.643 382.055,177.530 382.040,175.800 381.600 C 175.140 381.432,173.880 381.296,173.000 381.297 L 171.400 381.300 173.200 381.620 M224.800 381.600 L 223.800 381.920 224.800 381.913 C 225.350 381.909,226.340 381.768,227.000 381.600 L 228.200 381.295 227.000 381.287 C 226.340 381.283,225.350 381.424,224.800 381.600 M179.200 382.420 C 181.750 382.874,184.021 382.836,181.800 382.377 C 180.920 382.195,179.570 382.058,178.800 382.073 C 177.495 382.098,177.522 382.122,179.200 382.420 M218.000 382.400 C 215.912 382.839,218.346 382.857,220.800 382.420 L 222.600 382.100 221.000 382.103 C 220.120 382.104,218.770 382.238,218.000 382.400 M188.000 383.260 C 192.262 383.587,207.996 383.578,212.000 383.248 C 213.650 383.111,208.160 383.000,199.800 383.000 C 191.440 383.000,186.130 383.117,188.000 383.260 " stroke="none" fill="#8f9498" fill-rule="evenodd"></path></g></svg>